<?xml version="1.0" encoding="UTF-8"?>
<svg width="87px" height="76px" viewBox="0 0 87 76" version="1.1" xmlns="http://www.w3.org/2000/svg" xmlns:xlink="http://www.w3.org/1999/xlink">
    <!-- Generator: Sketch 49.3 (51167) - http://www.bohemiancoding.com/sketch -->
    <title>android</title>
    <desc>Created with Sketch.</desc>
    <defs></defs>
    <g id="Page-1" stroke="none" stroke-width="1" fill="none" fill-rule="evenodd">
        <g id="android" fill="#2465F6" fill-rule="nonzero">
            <path d="M6.66643881,29 L1.33336588,29 C0.596469813,29 0,29.6069328 0,30.3571997 L0,46.6428003 C0,47.3928684 0.596274505,48 1.33336588,48 L6.66663412,48 C7.40353019,48 8,47.3930672 8,46.6428003 L8,30.3571997 C7.99980469,29.6071316 7.40353019,29 6.66643881,29 Z M5.33326823,45.2856007 L2.66653646,45.2856007 L2.66653646,31.7142005 L5.33307292,31.7142005 L5.33307292,45.2856007 L5.33326823,45.2856007 Z" id="Shape"></path>
            <path d="M48.6666178,61 L35.3333822,61 C34.5964771,61 34,61.6098357 34,62.3636908 L34,74.6363092 C34,75.3899646 34.5962818,76 35.3333822,76 L48.6666178,76 C49.4035229,76 50,75.3901643 50,74.6363092 L50,62.3636908 C50,61.6098357 49.4035229,61 48.6666178,61 Z M47.3332357,73.2726183 L36.6667643,73.2726183 L36.6667643,63.7271819 L47.3332357,63.7271819 L47.3332357,73.2726183 Z" id="Shape"></path>
            <path d="M85.4999634,29 L79.5000366,29 C78.6710285,29 78,29.6069328 78,30.3571997 L78,46.6428003 C78,47.3928684 78.6708088,48 79.5000366,48 L85.4999634,48 C86.3289715,48 87,47.3930672 87,46.6428003 L87,30.3571997 C86.9997803,29.6071316 86.3289715,29 85.4999634,29 Z M83.9999268,45.2856007 L81.0000732,45.2856007 L81.0000732,31.7142005 L83.9999268,31.7142005 L83.9999268,45.2856007 Z" id="Shape"></path>
            <path d="M22.5,6 C21.6710122,6 21,6.59628178 21,7.33338216 L21,20.6666178 C21,21.4035229 21.6707924,22 22.5,22 C23.3292076,22 24,21.4037182 24,20.6666178 L24,7.33338216 C23.9997803,6.59628178 23.3289878,6 22.5,6 Z" id="Shape"></path>
            <path d="M73.1562446,19 L12.8439562,19 C9.0698839,19 6,22.0830797 6,25.8735334 L6,56.1262651 C6,59.9167189 9.0698839,63 12.8439562,63 L73.1560438,63 C76.9301161,63 80,59.9169203 80,56.1262651 L80,25.8735334 C80,22.0830797 76.9299154,19 73.1562446,19 Z M77.2595269,56.1262651 C77.2595269,58.3994498 75.4191623,60.2498615 73.1562446,60.2498615 L12.8439562,60.2498615 C10.5808377,60.2498615 8.74067383,58.3994498 8.74067383,56.1262651 L8.74067383,25.8735334 C8.74067383,23.6003488 10.5808377,21.7499371 12.8439562,21.7499371 L73.1564453,21.7499371 C75.4195638,21.7499371 77.2597276,23.6003488 77.2597276,25.8735334 L77.2597276,56.1262651 L77.2595269,56.1262651 Z" id="Shape"></path>
            <path d="M50.6428003,44 L34.3571997,44 C33.6071316,44 33,44.6149156 33,45.3750504 C33,50.6818948 37.2620483,55 42.5,55 C47.7379517,55 52,50.6818948 52,45.3750504 C51.9998012,44.6149156 51.3928684,44 50.6428003,44 Z M42.5,52.2498993 C39.2226024,52.2498993 36.4813652,49.8838942 35.8507753,46.7498993 L49.1494235,46.7498993 C48.5182372,49.8838942 45.7773976,52.2498993 42.5,52.2498993 Z" id="Shape"></path>
            <path d="M22.5,0 C20.0186279,0 18,2.01862793 18,4.5 C18,6.98137207 20.0186279,9 22.5,9 C24.9813721,9 27,6.98137207 27,4.5 C27,2.01862793 24.9813721,0 22.5,0 Z M22.5,6.00007324 C21.67229,6.00007324 20.9999268,5.32770996 20.9999268,4.5 C20.9999268,3.67229004 21.67229,2.99992676 22.5,2.99992676 C23.32771,2.99992676 24.0000732,3.67229004 24.0000732,4.5 C23.9998535,5.32770996 23.3274902,6.00007324 22.5,6.00007324 Z" id="Shape"></path>
            <path d="M63.5,6 C62.6710122,6 62,6.59628178 62,7.33338216 L62,20.6666178 C62,21.4035229 62.6707924,22 63.5,22 C64.3292076,22 65,21.4037182 65,20.6666178 L65,7.33338216 C64.9997803,6.59628178 64.3289878,6 63.5,6 Z" id="Shape"></path>
            <path d="M63.5,0 C61.0186279,0 59,2.01862793 59,4.5 C59,6.98137207 61.0186279,9 63.5,9 C65.9813721,9 68,6.98137207 68,4.5 C68,2.01862793 65.9813721,0 63.5,0 Z M63.5,6.00007324 C62.67229,6.00007324 61.9999268,5.32770996 61.9999268,4.5 C61.9999268,3.67229004 62.67229,2.99992676 63.5,2.99992676 C64.32771,2.99992676 65.0000732,3.67229004 65.0000732,4.5 C64.9998535,5.32770996 64.3274902,6.00007324 63.5,6.00007324 Z" id="Shape"></path>
            <path d="M22.5,31 C18.9162687,31 16,33.9162687 16,37.5 C16,41.0837313 18.9162687,44 22.5,44 C26.0837313,44 29,41.0837313 29,37.5 C29.0001904,33.9162687 26.0839217,31 22.5,31 Z M22.5,41.4000381 C20.3494565,41.4000381 18.5999619,39.6505435 18.5999619,37.5 C18.5999619,35.3494565 20.3494565,33.5999619 22.5,33.5999619 C24.6505435,33.5999619 26.4000381,35.3494565 26.4000381,37.5 C26.4000381,39.6505435 24.6505435,41.4000381 22.5,41.4000381 Z" id="Shape"></path>
            <path d="M61.5,31 C57.9162687,31 55,33.9162687 55,37.5 C55,41.0837313 57.9162687,44 61.5,44 C65.0837313,44 68,41.0837313 68,37.5 C68,33.9162687 65.0837313,31 61.5,31 Z M61.5,41.4000381 C59.3494565,41.4000381 57.5999619,39.6505435 57.5999619,37.5 C57.5999619,35.3494565 59.3494565,33.5999619 61.5,33.5999619 C63.6505435,33.5999619 65.4000381,35.3494565 65.4000381,37.5 C65.4000381,39.6505435 63.6505435,41.4000381 61.5,41.4000381 Z" id="Shape"></path>
        </g>
    </g>
</svg>