<?xml version="1.0" encoding="UTF-8"?>
<svg width="71px" height="91px" viewBox="0 0 71 91" version="1.1" xmlns="http://www.w3.org/2000/svg" xmlns:xlink="http://www.w3.org/1999/xlink">
    <!-- Generator: Sketch 49.3 (51167) - http://www.bohemiancoding.com/sketch -->
    <title>apple</title>
    <desc>Created with Sketch.</desc>
    <defs></defs>
    <g id="Page-1" stroke="none" stroke-width="1" fill="none" fill-rule="evenodd">
        <g id="apple" fill="#2465F6" fill-rule="nonzero">
            <path d="M53.9576218,1.8308026 L53.8625406,0 L52.0473544,0.196095445 C51.8692932,0.215184382 34.3242216,2.33752711 33.1210124,22.0286334 L33,24 L34.9638586,23.8663774 C35.1643935,23.8524946 55.0363611,22.2611714 53.9576218,1.8308026 Z M50.5329704,4.02950108 C50.2027794,15.8958785 41.0058357,19.1965293 36.7842311,20.0867679 C38.3919675,8.55531453 46.722808,5.04121475 50.5329704,4.02950108 Z" id="Shape"></path>
            <path d="M70.8704126,65.3330045 L69.7663279,64.971817 C63.084801,62.7907331 58.5976209,56.6104137 58.5976209,49.5925581 C58.5976209,43.3494235 62.0930253,37.7658486 67.7223024,35.0194278 L69.4017553,34.2010851 L68.4652702,32.5731241 C68.0644132,31.8751772 64.3167453,25.6931129 56.3998184,23.6463838 C50.1208764,22.0236574 43.0609543,23.459683 35.4083857,27.9160737 C32.1687004,25.9304149 21.4077619,20.2072507 12.8463536,25.9443738 C11.1703564,26.8796226 -6.59348584,37.6262593 2.65214396,66.6224613 C2.9234136,67.2715519 9.36995532,82.5234355 16.9983342,88.2361305 C19.0561823,90.2217893 24.319159,92.7029903 30.3337427,88.5624206 C31.3756255,88.1279487 38.3474282,85.41817 42.7706785,88.5920834 C44.4034798,89.7210124 47.2544029,91 50.2660143,91 C52.5502084,91 54.9259776,90.2654109 56.9337185,88.1715704 C57.8702036,87.3532277 66.4247005,79.6426598 70.8704126,67.4285899 L71,67.072637 L70.8704126,65.3330045 Z M54.6253348,85.5699735 L54.4922917,85.6973488 C50.7031558,89.7157778 44.958114,85.8718355 44.7455906,85.7287564 C42.4855862,84.10603 39.8679205,83.5773352 37.412671,83.5773352 C32.9565919,83.5773352 29.0378686,85.3204575 28.7873329,85.4338738 L28.5056963,85.5944016 C23.2893711,89.2708367 19.717942,86.035853 19.3395468,85.667686 L19.1356626,85.4914545 C12.2364288,80.4104014 5.89528489,65.4132684 5.88664573,65.4080338 C-2.76633764,38.2439422 13.8104839,29.3590788 14.5154394,28.9978913 L14.705501,28.8844749 C22.7347369,23.4404895 34.2766557,31.3203095 34.3906926,31.3988285 L35.3116271,32.0374498 L36.2653904,31.4564091 C43.4531722,27.0680683 49.939454,25.5762069 55.5428137,27.0261914 C60.1077462,28.2057216 63.0174155,31.0864973 64.4411492,32.8575374 C58.658095,36.4362599 55.1436844,42.6811394 55.1436844,49.5925581 C55.1436844,57.5421727 59.8693053,64.6053949 67.0691819,67.6781059 C62.6372924,78.602719 54.7099986,85.4984339 54.6253348,85.5699735 Z" id="Shape"></path>
        </g>
    </g>
</svg>