<?xml version="1.0" encoding="UTF-8"?>
<svg width="924px" height="553px" viewBox="0 0 924 553" version="1.1" xmlns="http://www.w3.org/2000/svg" xmlns:xlink="http://www.w3.org/1999/xlink">
    <!-- Generator: Sketch 49.3 (51167) - http://www.bohemiancoding.com/sketch -->
    <title>undraw_brainstorming_49d4 (1)</title>
    <desc>Created with Sketch.</desc>
    <defs>
        <linearGradient x1="50%" y1="99.9796293%" x2="50%" y2="0%" id="linearGradient-1">
            <stop stop-color="#808080" stop-opacity="0.25" offset="0%"></stop>
            <stop stop-color="#808080" stop-opacity="0.12" offset="54%"></stop>
            <stop stop-color="#808080" stop-opacity="0.1" offset="100%"></stop>
        </linearGradient>
        <linearGradient x1="51233%" y1="18373%" x2="51233%" y2="13464%" id="linearGradient-2">
            <stop stop-color="#808080" stop-opacity="0.25" offset="0%"></stop>
            <stop stop-color="#808080" stop-opacity="0.12" offset="54%"></stop>
            <stop stop-color="#808080" stop-opacity="0.1" offset="100%"></stop>
        </linearGradient>
        <linearGradient x1="58927%" y1="12987%" x2="58927%" y2="8079%" id="linearGradient-3">
            <stop stop-color="#808080" stop-opacity="0.25" offset="0%"></stop>
            <stop stop-color="#808080" stop-opacity="0.12" offset="54%"></stop>
            <stop stop-color="#808080" stop-opacity="0.1" offset="100%"></stop>
        </linearGradient>
        <linearGradient x1="51126%" y1="4930%" x2="51126%" y2="21%" id="linearGradient-4">
            <stop stop-color="#808080" stop-opacity="0.25" offset="0%"></stop>
            <stop stop-color="#808080" stop-opacity="0.12" offset="54%"></stop>
            <stop stop-color="#808080" stop-opacity="0.1" offset="100%"></stop>
        </linearGradient>
        <linearGradient x1="43454%" y1="4909%" x2="43454%" y2="0%" id="linearGradient-5">
            <stop stop-color="#808080" stop-opacity="0.25" offset="0%"></stop>
            <stop stop-color="#808080" stop-opacity="0.12" offset="54%"></stop>
            <stop stop-color="#808080" stop-opacity="0.1" offset="100%"></stop>
        </linearGradient>
        <linearGradient x1="36529%" y1="9140%" x2="36529%" y2="4232%" id="linearGradient-6">
            <stop stop-color="#808080" stop-opacity="0.25" offset="0%"></stop>
            <stop stop-color="#808080" stop-opacity="0.12" offset="54%"></stop>
            <stop stop-color="#808080" stop-opacity="0.1" offset="100%"></stop>
        </linearGradient>
    </defs>
    <g id="Page-1" stroke="none" stroke-width="1" fill="none" fill-rule="evenodd">
        <g id="undraw_brainstorming_49d4-(1)" fill-rule="nonzero">
            <path d="M762.5,373.52 C851.686177,373.519999 923.988955,445.813823 924,535 L924,537.5 L601,537.5 L601,535 C601.011045,445.813823 673.313823,373.519999 762.5,373.52 Z" id="Shape" fill="#E6EDFC"></path>
            <path d="M161.5,373.52 C250.686177,373.519999 322.988955,445.813823 323,535 L323,537.5 L0,537.5 L0,535 C-1.09231131e-14,445.806013 72.3060129,373.5 161.5,373.5 L161.5,373.52 Z" id="Shape" fill="#E6EDFC"></path>
            <rect id="Rectangle-path" fill="url(#linearGradient-1)" x="417.74" y="92.33" width="50.7" height="49.09"></rect>
            <rect id="Rectangle-path" fill="#F5F5F5" x="418.61" y="93.17" width="48.96" height="47.4"></rect>
            <rect id="Rectangle-path" fill="url(#linearGradient-2)" x="486.98" y="134.64" width="50.7" height="49.09"></rect>
            <rect id="Rectangle-path" fill="#F5F5F5" x="487.85" y="135.49" width="48.96" height="47.4"></rect>
            <rect id="Rectangle-path" fill="url(#linearGradient-3)" x="563.92" y="80.79" width="50.7" height="49.09"></rect>
            <rect id="Rectangle-path" fill="#F5F5F5" x="564.79" y="81.63" width="48.96" height="47.4"></rect>
            <rect id="Rectangle-path" fill="url(#linearGradient-4)" x="485.91" y="0.21" width="50.7" height="49.09"></rect>
            <rect id="Rectangle-path" fill="#7CFCFF" x="486.79" y="1.06" width="48.96" height="47.4"></rect>
            <rect id="Rectangle-path" fill="url(#linearGradient-5)" x="409.19" y="0" width="50.7" height="49.09"></rect>
            <rect id="Rectangle-path" fill="#FFFFA5" x="410.06" y="0.85" width="48.96" height="47.4"></rect>
            <rect id="Rectangle-path" fill="url(#linearGradient-6)" x="339.94" y="42.32" width="50.7" height="49.09"></rect>
            <rect id="Rectangle-path" fill="#FF69B4" x="340.82" y="43.16" width="48.96" height="47.4"></rect>
            <path d="M150.27,127.19 C150.27,127.19 146.44,160.9 134.18,167.8 C121.92,174.7 171,182.35 171,182.35 C171,182.35 184.79,138.68 194,134.85 C203.21,131.02 150.27,127.19 150.27,127.19 Z" id="Shape" fill="#FDB797"></path>
            <path d="M183.21,215.3 C183.21,215.3 196.21,180.06 209.26,190.02 C222.31,199.98 198.53,230.63 198.53,230.63 L183.21,215.3 Z" id="Shape" fill="#FDB797"></path>
            <path d="M112,356.28 C112,356.28 106.64,386.16 203.94,388.46 L267.53,390.76 C267.53,390.76 274.43,395.36 265.23,406.08 C259.23,413.08 258.44,429.38 258.64,439.74 C258.77203,446.7625 258.043269,453.774727 256.47,460.62 C254.1,470.93 250.85,484.62 249.91,486.53 C248.38,489.59 285.91,489.59 285.91,489.59 L305.83,410.67 C305.83,410.67 327.28,366.23 297.4,353.21 C267.52,340.19 183.24,317.97 183.24,317.97 L112,356.28 Z" id="Shape" fill="#4D8AF0"></path>
            <path d="M274.39,484.23 C274.39,484.23 285.08,474.64 288.54,478.29 C288.54,478.29 277.45,504.16 304.27,518.71 L318.06,526.37 C318.06,526.37 347.17,532.5 327.25,546.29 C307.33,560.08 239.91,540.93 239.91,540.93 L249.1,480.4 C249.1,480.4 262.13,491.13 274.39,484.23 Z" id="Shape" fill="#000000" opacity="0.1"></path>
            <path d="M274.39,485 C274.39,485 285.08,475.41 288.54,479.06 C288.54,479.06 277.45,504.93 304.27,519.48 L318.06,527.14 C318.06,527.14 347.17,533.27 327.25,547.06 C307.33,560.85 239.91,541.7 239.91,541.7 L249.1,481.17 C249.1,481.17 262.13,491.89 274.39,485 Z" id="Shape" fill="#333333"></path>
            <path d="M170.19,221.43 C170.19,221.43 179.38,219.13 181.68,214.53 C181.68,214.53 201.6,215.3 200.07,229.85 L180.15,261.26 L170.19,221.43 Z" id="Shape" fill="#3AD29F"></path>
            <path d="M170.19,221.43 C170.19,221.43 179.38,219.13 181.68,214.53 C181.68,214.53 201.6,215.3 200.07,229.85 L180.15,261.26 L170.19,221.43 Z" id="Shape" fill="#000000" opacity="0.05"></path>
            <path d="M154.86,160.9 C154.86,160.9 143.37,153.24 136.47,157.07 C129.57,160.9 95.1,179.29 92.8,227.52 C90.5,275.75 108.12,370.8 108.12,370.8 C108.12,370.8 134.17,344.75 154.86,345.52 C175.55,346.29 203.86,311.04 203.86,311.04 C203.86,311.04 172.86,240.33 174.69,218.24 C175.046412,214.346855 175.106585,210.43226 174.87,206.53 C174.18,196.62 173.42,180.83 175.51,179.26 C175.55,179.29 158.7,160.14 154.86,160.9 Z" id="Shape" fill="#000000" opacity="0.1"></path>
            <path d="M154.86,158.6 C154.86,158.6 143.37,150.94 136.47,154.77 C129.57,158.6 95.1,176.99 92.8,225.26 C90.5,273.53 108.13,368.52 108.13,368.52 C108.13,368.52 134.18,342.47 154.87,343.24 C175.56,344.01 203.87,308.76 203.87,308.76 C203.87,308.76 172.87,238.05 174.7,215.96 C175.056412,212.066855 175.116585,208.15226 174.88,204.25 C174.19,194.34 173.43,178.55 175.52,176.98 C175.55,176.99 158.7,157.84 154.86,158.6 Z" id="Shape" fill="#3AD29F"></path>
            <path d="M185.51,269.7 C185.51,269.7 213.86,242.12 226.88,248.25 C239.9,254.38 203.88,283.49 203.88,283.49 L185.51,269.7 Z" id="Shape" fill="#FDB797"></path>
            <path d="M118.09,219.13 C118.09,219.13 127.28,295.75 132.65,300.35 C138.02,304.95 154.87,326.4 188.58,300.35 L210,281.19 C210,281.19 189.31,277.36 192.38,265.87 C192.38,265.87 164.8,277.36 160.2,268.17 C155.6,258.98 167.1,216.84 167.1,216.84 C167.1,216.84 160.97,179.3 143.35,186.19 C125.73,193.08 118.09,219.13 118.09,219.13 Z" id="Shape" fill="#000000" opacity="0.1"></path>
            <path d="M117.32,218.37 C117.32,218.37 126.51,294.99 131.88,299.59 C137.25,304.19 154.1,325.64 187.81,299.59 L209.26,280.44 C209.26,280.44 188.57,276.61 191.64,265.12 C191.64,265.12 164.06,276.61 159.46,267.42 C154.86,258.23 166.36,216.09 166.36,216.09 C166.36,216.09 160.23,178.52 142.61,185.42 C124.99,192.32 117.32,218.37 117.32,218.37 Z" id="Shape" fill="#3AD29F"></path>
            <path d="M150.27,128.72 C150.27,128.72 151.16,129.87 149.89,136 C156.49,143.52 164.76,151.71 175.56,151.71 C178.310254,151.708989 181.051379,151.393609 183.73,150.77 C187.19,143.57 190.83,137.69 193.95,136.39 C203.13,132.52 150.27,128.72 150.27,128.72 Z" id="Shape" fill="#000000" opacity="0.1"></path>
            <circle id="Oval" fill="#FDB797" cx="175.55" cy="114.17" r="36.01"></circle>
            <path d="M159.55,130.73 C160.14,127.97 160.63,124.78 158.87,122.57 C157.87,121.27 156.2,120.57 155.03,119.41 C150.95,115.29 154.54,108.31 158.73,104.3 C168.311271,95.1900319 180.596099,89.4442424 193.73,87.93 C195.95,87.68 198.36,87.48 200,85.93 C202,84.11 202.08,81.11 202.07,78.44 L201.97,58.54 C201.97,55.97 201.97,53.3 200.84,50.97 C199.71,48.64 197.3,46.74 194.76,47.15 C192.43,47.53 190.83,49.6 189.25,51.36 C180.760588,60.511046 167.718191,63.878086 155.86,59.98 C152.96,58.98 150.16,57.53 147.11,57.2 C144.06,56.87 140.55,58.01 139.31,60.82 C137.93,63.96 139.87,67.73 138.79,70.98 C136.69,77.29 126.06,76.14 122.93,81.98 C120.3,86.9 124.77,92.38 127.8,97.07 C133.44,105.79 134.45,116.6 137.38,126.56 C138.93,131.85 143.84,145.19 150.62,146.04 C158.67,147.1 158.3,136.63 159.55,130.73 Z" id="Shape" fill="#000000" opacity="0.1"></path>
            <path d="M158.79,129.96 C159.38,127.2 159.87,124.01 158.11,121.8 C157.11,120.5 155.44,119.8 154.27,118.64 C150.19,114.52 153.78,107.52 158,103.52 C167.581271,94.4100319 179.866099,88.6642424 193,87.15 C195.22,86.9 197.63,86.7 199.27,85.15 C201.27,83.33 201.35,80.33 201.34,77.66 L201.24,57.76 C201.24,55.19 201.24,52.52 200.11,50.19 C198.98,47.86 196.57,45.96 194.03,46.37 C191.7,46.75 190.1,48.82 188.52,50.58 C180.030588,59.731046 166.988191,63.098086 155.13,59.2 C152.23,58.2 149.43,56.75 146.38,56.42 C143.33,56.09 139.82,57.23 138.58,60.04 C137.2,63.18 139.14,66.95 138.06,70.2 C135.96,76.51 125.33,75.36 122.2,81.2 C119.57,86.12 124.04,91.6 127.07,96.29 C132.71,105.01 133.72,115.82 136.65,125.78 C138.2,131.07 143.11,144.41 149.89,145.26 C157.9,146.33 157.53,135.86 158.79,129.96 Z" id="Shape" fill="#333333"></path>
            <rect id="Rectangle-path" fill="#7CFCFF" transform="translate(217.948893, 177.643530) rotate(-12.150000) translate(-217.948893, -177.643530) " x="193.468893" y="153.94353" width="48.96" height="47.4"></rect>
            <path d="M656.13,327.59 C655.672341,327.366063 655.322458,326.969401 655.157404,326.487368 C654.992349,326.005334 655.02566,325.477461 655.25,325.02 L671,295.35 C671.223937,294.892341 671.620599,294.542458 672.102632,294.377404 C672.584666,294.212349 673.112539,294.24566 673.57,294.47 C674.027659,294.693937 674.377542,295.090599 674.542596,295.572632 C674.707651,296.054666 674.67434,296.582539 674.45,297.04 L658.7,326.71 C658.476063,327.167659 658.079401,327.517542 657.597368,327.682596 C657.115334,327.847651 656.587461,327.81434 656.13,327.59 Z" id="Shape" fill="#4D8AF0"></path>
            <path d="M662.85,325.45 C662.85,325.45 620.08,331.62 624.78,360.98 L638.29,415.6 C638.29,415.6 658.29,469.04 650.62,489.6 C650.62,489.6 642.99,522.49 635.35,521.31 C627.71,520.13 651.79,527.18 651.79,527.18 L678.79,502.51 L687,484.3 C687,484.3 689.35,479.01 678.78,470.21 C678.78,470.21 672.91,454.35 674.67,449.66 C676.43,444.97 681.67,387.52 667.32,367.79 L662.85,325.45 Z" id="Shape" fill="#BE7C5E"></path>
            <path d="M662.85,325.45 C662.85,325.45 620.08,331.62 624.78,360.98 L638.29,415.6 C638.29,415.6 658.29,469.04 650.62,489.6 C650.62,489.6 642.99,522.49 635.35,521.31 C627.71,520.13 651.79,527.18 651.79,527.18 L678.79,502.51 L687,484.3 C687,484.3 689.35,479.01 678.78,470.21 C678.78,470.21 672.91,454.35 674.67,449.66 C676.43,444.97 681.67,387.52 667.32,367.79 L662.85,325.45 Z" id="Shape" fill="#000000" opacity="0.1"></path>
            <path d="M634.45,543.63 L697.59,484.44 L680.68,466.05 L649.26,489.52 C640.54,497.69 625.11,533.71 634.45,543.67 L634.45,543.63 Z" id="Shape" fill="#F5F5F5"></path>
            <path d="M745.17,321.63 C745.17,321.63 681.75,315.76 659.43,326.92 C659.43,326.92 657.67,336.32 667.06,347.47 C676.45,358.62 745.17,321.63 745.17,321.63 Z" id="Shape" fill="#333333"></path>
            <path d="M745.17,321.63 C745.17,321.63 681.75,315.76 659.43,326.92 C659.43,326.92 657.67,336.32 667.06,347.47 C676.45,358.62 745.17,321.63 745.17,321.63 Z" id="Shape" fill="#000000" opacity="0.3"></path>
            <rect id="Rectangle-path" fill="#E0E0E0" x="636.46" y="327.93" width="61.06" height="8.53"></rect>
            <path d="M675.29,339.25 C675.29,339.25 641.23,336.9 627.13,347.47 C613.03,358.04 611.86,380.36 611.86,380.36 L570.75,500.75 C570.75,500.75 558,519.87 556.07,531.29 C555.48,534.81 566.07,538.92 566.07,538.92 L601.89,508.92 L608.89,498.92 C608.89,498.92 601.89,487.76 606.54,484.83 C611.19,481.9 659.39,385.58 659.39,385.58 L721.09,381.52 L675.29,339.25 Z" id="Shape" fill="#BE7C5E"></path>
            <path d="M807.42,306.36 C807.42,306.36 850.29,374.48 788.63,383.29 L740.47,383.29 C740.47,383.29 722.85,422.05 713.47,419.7 C704.09,417.35 650.63,359.8 658.85,339.24 L734.61,321.62 C734.61,321.62 748.7,315.16 749.88,302.24 L807.42,306.36 Z" id="Shape" fill="#000000" opacity="0.1"></path>
            <path d="M808.6,306.36 C808.6,306.36 851.47,374.52 789.8,383.29 L741.65,383.29 C741.65,383.29 724.03,422.05 714.65,419.7 C705.27,417.35 651.8,359.8 660,339.25 L735.76,321.63 C735.76,321.63 749.85,315.17 751.03,302.25 L808.6,306.36 Z" id="Shape" fill="#333333"></path>
            <path d="M540.62,551.23 L617.8,512.07 L606.71,489.69 L570,503.39 C559.34,508.8 534.45,539.06 540.63,551.23 L540.62,551.23 Z" id="Shape" fill="#F5F5F5"></path>
            <path d="M742.82,240 L728.14,263.52 L692.9,315.79 C692.9,315.79 664.12,316.96 667.65,339.87 C671.18,362.78 705.23,328.12 705.23,328.12 L762.23,263.52 L742.82,240 Z" id="Shape" fill="#BE7C5E"></path>
            <path d="M742.82,240 L728.14,263.52 L692.9,315.79 C692.9,315.79 664.12,316.96 667.65,339.87 C671.18,362.78 705.23,328.12 705.23,328.12 L762.23,263.52 L742.82,240 Z" id="Shape" fill="#000000" opacity="0.1"></path>
            <circle id="Oval" fill="#BE7C5E" cx="774.83" cy="114.62" r="35.24"></circle>
            <path d="M757.5,133.12 C757.5,133.12 788.63,161.31 771.01,190.12 C753.39,218.93 814.47,170.74 814.47,170.74 C814.47,170.74 793.33,135.47 798,114.33 L757.5,133.12 Z" id="Shape" fill="#BE7C5E"></path>
            <path d="M781,162.52 C781,162.52 772.78,175.44 761.62,178.96 L739.3,204.77 C739.3,204.77 720.51,221.21 731.67,242.35 C742.83,263.49 749.29,315.76 749.29,315.76 C749.29,315.76 804.49,315.76 817.41,322.76 C817.41,322.76 806.25,271.67 821.52,235.84 C836.79,200.01 809.77,150.69 809.77,150.69 L781,162.52 Z" id="Shape" fill="#000000" opacity="0.1"></path>
            <path d="M781,161.31 C781,161.31 772.78,174.23 761.62,177.75 L739.3,203.59 C739.3,203.59 720.51,220.03 731.67,241.17 C742.83,262.31 749.29,314.58 749.29,314.58 C749.29,314.58 804.49,314.58 817.41,321.58 C817.41,321.58 806.25,270.49 821.52,234.66 C836.79,198.83 809.77,149.52 809.77,149.52 L781,161.31 Z" id="Shape" fill="#F55F44"></path>
            <path d="M803.9,220.04 C803.9,220.04 763.38,304.04 754.57,309.3 C745.76,314.56 678.81,321.63 678.81,321.63 C678.81,321.63 637.7,329.26 648.81,315.17 C659.92,301.08 683.46,304.6 683.46,304.6 L739.25,294.03 L771.55,203.03 L803.9,220.04 Z" id="Shape" fill="#BE7C5E"></path>
            <path d="M785.69,180.1 C785.69,180.1 753.39,199.48 759.85,217.1 C759.85,217.1 796.85,211.81 809.77,236.48 C809.77,236.48 830.32,213.58 814.47,188.91 C814.47,188.91 805.66,173.05 785.69,180.1 Z" id="Shape" fill="#000000" opacity="0.1"></path>
            <path d="M785.69,178.93 C785.69,178.93 753.39,198.31 759.85,215.93 C759.85,215.93 796.85,210.64 809.77,235.31 C809.77,235.31 830.32,212.41 814.47,187.74 C814.47,187.74 805.66,171.88 785.69,178.93 Z" id="Shape" fill="#F55F44"></path>
            <path d="M758.91,110.97 C759.969191,110.921115 761.002819,111.304494 761.773946,112.032257 C762.545073,112.76002 762.987568,113.769755 763,114.83 L767.4,131.69 C769.49,139.69 771.6,147.83 771.6,156.11 C771.6,180.61 752.86,201.74 731.16,213.11 L753.36,218.94 C755.528199,219.666538 757.8198,219.952138 760.1,219.78 C761.981862,219.419225 763.771162,218.681054 765.36,217.61 C774.8,211.83 781.57,202.41 786.04,192.28 C790.51,182.15 792.89,171.28 795.25,160.44 C802.573065,173.435107 807.074273,187.828069 808.46,202.68 C809.95,218.81 807.84,235.74 814.07,250.68 C817.16,258.09 823.07,265.15 831.07,266.14 C834.625096,244.840011 836.739893,223.324543 837.4,201.74 C837.55,196.96 837.61,192.12 836.48,187.47 C835.48,183.37 833.58,179.56 832.21,175.57 C826.89,160.02 830.01,143.02 832.64,126.8 C835.27,110.58 837.15,93.1 829.76,78.42 C825.5,69.96 817.53,62.72 808.08,62.08 C799.08,61.48 790.81,66.75 781.93,68.16 C773.05,69.57 764.22,67.16 755.37,67.79 C746.913293,68.4521695 738.907305,71.8702595 732.58,77.52 C727.72,81.86 723.87,87.83 723.8,94.34 C723.6,111.82 747.08,109.62 758.91,110.97 Z" id="Shape" fill="#333333" opacity="0.1"></path>
            <path d="M758.91,109.8 C759.969191,109.751115 761.002819,110.134494 761.773946,110.862257 C762.545073,111.59002 762.987568,112.599755 763,113.66 L767.4,130.52 C769.49,138.52 771.6,146.66 771.6,154.94 C771.6,179.44 752.86,200.57 731.16,211.94 L753.36,217.77 C755.528199,218.496538 757.8198,218.782138 760.1,218.61 C761.981862,218.249225 763.771162,217.511054 765.36,216.44 C774.8,210.66 781.57,201.24 786.04,191.11 C790.51,180.98 792.89,170.11 795.25,159.27 C802.577895,172.267341 807.082567,186.663891 808.47,201.52 C809.96,217.65 807.85,234.58 814.08,249.52 C817.17,256.93 823.08,263.99 831.08,264.98 C834.635096,243.680011 836.749893,222.164543 837.41,200.58 C837.56,195.8 837.62,190.96 836.49,186.31 C835.49,182.21 833.59,178.4 832.22,174.41 C826.9,158.86 830.02,141.86 832.65,125.64 C835.28,109.42 837.16,91.94 829.77,77.26 C825.51,68.8 817.54,61.56 808.09,60.92 C799.09,60.32 790.82,65.59 781.94,67 C773.06,68.41 764.23,66 755.38,66.63 C746.939905,67.2740513 738.942672,70.6633047 732.61,76.28 C727.75,80.62 723.9,86.59 723.83,93.1 C723.6,110.65 747.08,108.45 758.91,109.8 Z" id="Shape" fill="#333333"></path>
        </g>
    </g>
</svg>