<?xml version="1.0" encoding="UTF-8"?>
<svg width="74px" height="74px" viewBox="0 0 74 74" version="1.1" xmlns="http://www.w3.org/2000/svg" xmlns:xlink="http://www.w3.org/1999/xlink">
    <!-- Generator: Sketch 50.2 (55047) - http://www.bohemiancoding.com/sketch -->
    <title>cost</title>
    <desc>Created with Sketch.</desc>
    <defs></defs>
    <g id="Page-1" stroke="none" stroke-width="1" fill="none" fill-rule="evenodd">
        <g id="cost" fill="#E84393" fill-rule="nonzero">
            <circle id="Oval" opacity="0.0951879529" cx="37.139" cy="37.139" r="36.83"></circle>
            <g id="coin-stack-(1)" transform="translate(18.000000, 20.000000)">
                <path d="M10.9486927,20 C12.0077078,20 13.0313474,19.9316485 14,19.8044153 L14,9.19549096 C13.0314412,9.06835152 12.0077078,9 10.9486927,9 C4.90190953,9 0,11.2214712 0,13.9619076 L0,15.0379986 C8.85424144e-16,17.7783413 4.90190953,20 10.9486927,20 Z" id="Shape"></path>
                <path d="M10.9486927,25 C12.0077078,25 13.0313474,24.9321743 14,24.806106 L14,21.7203637 C13.0311597,21.846525 12.0079893,21.915281 10.9486927,21.915281 C5.67050717,21.915281 1.2650755,20.235549 0.23026964,18 C0.0795715789,18.3256377 0,18.6628122 0,19.0084533 L0,20.0762657 C1.51048687e-15,22.7956192 4.90190953,25 10.9486927,25 Z" id="Shape"></path>
                <path d="M14.5745796,27.960219 L14.5745796,27.7203637 C13.5659768,27.846525 12.500814,27.915281 11.3980424,27.915281 C5.90323274,27.915281 1.31699598,26.235549 0.239720229,24 C0.082837308,24.3255446 0,24.6627191 0,25.0083602 L0,26.0761726 C0,28.7956192 5.10309077,31 11.3980424,31 C12.6569155,31 13.8677273,30.9116126 15,30.7487938 C14.7193495,30.2020017 14.5745796,29.6253439 14.5745796,29.0279384 L14.5745796,27.960219 Z" id="Shape"></path>
                <path d="M27,0 C20.9248807,0 16,2.22149013 16,4.9619499 L16,6.0380501 C16,8.77850987 20.9248807,11 27,11 C33.0750251,11 38,8.77850987 38,6.0380501 L38,4.9619499 C38,2.22149013 33.0750251,0 27,0 Z" id="Shape"></path>
                <path d="M27,13.915281 C21.6970801,13.915281 17.2710038,12.235642 16.2313487,10 C16.0799445,10.3255446 16,10.6627191 16,11.0084533 L16,12.0762657 C16,14.7956192 20.9248807,17 27,17 C33.0750251,17 38,14.7956192 38,12.0762657 L38,11.0084533 C38,10.6627191 37.9200555,10.3255446 37.7686513,10 C36.7289962,12.235642 32.3029199,13.915281 27,13.915281 Z" id="Shape"></path>
                <path d="M27,18.915229 C21.6970801,18.915229 17.2710038,17.2355193 16.2313487,15 C16.0799445,15.3255403 16,15.6627103 16,16.0084399 L16,17.0762381 C16,19.7956485 20.9248807,22 27,22 C33.0750251,22 38,19.7956485 38,17.0762381 L38,16.0084399 C38,15.6627103 37.9200555,15.3255403 37.7686513,15 C36.7289962,17.2356123 32.3029199,18.915229 27,18.915229 Z" id="Shape"></path>
                <path d="M27,24.915281 C21.6970801,24.915281 17.2710038,23.235549 16.2313487,21 C16.0799445,21.3256377 16,21.6627191 16,22.0083602 L16,23.0762657 C16,25.7956192 20.9248807,28 27,28 C33.0750251,28 38,25.7956192 38,23.0762657 L38,22.0083602 C38,21.6627191 37.9200555,21.3254516 37.7686513,21 C36.7289962,23.235456 32.3029199,24.915281 27,24.915281 Z" id="Shape"></path>
                <path d="M27,30.915281 C21.6970801,30.915281 17.2710038,29.235642 16.2313487,27.000093 C16.0799445,27.3257307 16,27.6629983 16,28.0084533 L16,29.0762657 C16,31.7956192 20.9248807,34 27,34 C33.0750251,34 38,31.7956192 38,29.0762657 L38,28.0083602 C38,27.6627191 37.9200555,27.3254516 37.7686513,27 C36.7289962,29.235549 32.3029199,30.915281 27,30.915281 Z" id="Shape"></path>
            </g>
        </g>
    </g>
</svg>