<?xml version="1.0" encoding="UTF-8"?>
<svg width="74px" height="74px" viewBox="0 0 74 74" version="1.1" xmlns="http://www.w3.org/2000/svg" xmlns:xlink="http://www.w3.org/1999/xlink">
    <!-- Generator: Sketch 49.3 (51167) - http://www.bohemiancoding.com/sketch -->
    <title>icon-seo-opt</title>
    <desc>Created with Sketch.</desc>
    <defs></defs>
    <g id="Page-1" stroke="none" stroke-width="1" fill="none" fill-rule="evenodd">
        <g id="icon-seo-opt" fill="#FFC148">
            <circle id="Oval" opacity="0.1" cx="37.139" cy="37.139" r="36.83"></circle>
            <g id="startup" transform="translate(22.000000, 21.000000)" fill-rule="nonzero">
                <path d="M7.54624855,24.4592305 C7.51280641,24.4270197 7.47683351,24.3986162 7.4382696,24.3741409 C6.20548989,23.1712824 5.01645611,22.7548386 3.90322451,23.1377421 C0.976223814,24.1433472 0.0943756737,30.5521462 0.00314792623,31.279276 C-0.0199904192,31.4636571 0.0879885262,31.6454396 0.210127657,31.7846772 C0.332266788,31.9226458 0.558468217,32 0.743574981,32 C1.46857647,31.9097735 7.85861621,31.0240675 8.86254322,28.088474 C9.25330408,26.9474385 8.80981913,25.7265106 7.54624855,24.4592305 Z" id="Shape"></path>
                <path d="M31.3333147,0 C23.3973412,0 16.0360532,6.484 11.2013819,12.008 C0.776041648,12.094625 0.00804420964,21.8573125 0.00141923174,21.9573125 C-0.0132682193,22.182625 0.0867314472,22.4 0.269418338,22.536 C0.386730447,22.6226875 0.525417484,22.6666875 0.666729513,22.6666875 C0.74541675,22.6666875 0.825416483,22.652 0.90141623,22.624 L5.83208728,20.7746875 L11.2253818,26.168 L9.37607546,31.0986875 C9.29607573,31.3106875 9.33076311,31.549375 9.46538766,31.7306875 C9.59069975,31.901375 9.78938658,32 10.0000734,32 C10.0147608,32 10.0280733,32 10.0440732,31.9986875 C10.1427604,31.992 19.9053528,31.224 19.9920401,20.8 C25.5160216,15.9653125 32,8.6026875 32,0.6666875 C31.9999375,0.298625 31.7013135,0 31.3333147,0 Z M21.3333481,14.666625 C19.1280429,14.666625 17.3333614,12.8719375 17.3333614,10.666625 C17.3333614,8.4613125 19.1280429,6.666625 21.3333481,6.666625 C23.5386532,6.666625 25.3333347,8.4613125 25.3333347,10.666625 C25.3333347,12.8719375 23.5386532,14.666625 21.3333481,14.666625 Z" id="Shape"></path>
                <circle id="Oval" cx="21.5" cy="10.5" r="2.5"></circle>
            </g>
        </g>
    </g>
</svg>