<?xml version="1.0"?>
<svg xmlns="http://www.w3.org/2000/svg" id="outline" viewBox="0 0 512 512" width="512" height="512"><path d="M32,32h72V16H24a8,8,0,0,0-8,8v80H32Z"/><path d="M480,104h16V24a8,8,0,0,0-8-8H408V32h72Z"/><path d="M480,480H408v16h80a8,8,0,0,0,8-8V408H480Z"/><path d="M24,496h80V480H32V408H16v80A8,8,0,0,0,24,496Z"/><path d="M407.829,233.318A204.753,204.753,0,0,0,416,176c0-88.224-71.776-160-160-160S96,87.776,96,176a204.753,204.753,0,0,0,8.171,57.318A24.038,24.038,0,0,0,88,256v40a48.146,48.146,0,0,0,35.888,46.448l1.978,31.65a88.347,88.347,0,0,0,31.492,62.113l51.083,42.571a74.29,74.29,0,0,0,95.118,0l51.083-42.57h0A88.351,88.351,0,0,0,386.134,374.1l1.978-31.65A48.146,48.146,0,0,0,424,296V256A24.038,24.038,0,0,0,407.829,233.318ZM256,32c79.4,0,144,64.6,144,144a188.887,188.887,0,0,1-9.708,59.828l-2.053,6.159-6.515-65.151A71.776,71.776,0,0,0,310.081,112H201.919a71.776,71.776,0,0,0-71.643,64.836l-6.515,65.151-2.053-6.159A188.887,188.887,0,0,1,112,176C112,96.6,176.6,32,256,32ZM230.31,418.733l4.89,3.667A8,8,0,0,0,240,424h32a8,8,0,0,0,4.8-1.6l4.89-3.667L256,470.111ZM294.573,254.8c5.556-4.321,13.366-6.8,21.427-6.8s15.871,2.479,21.427,6.8l1.542,1.2-1.542,1.2c-5.556,4.321-13.366,6.8-21.427,6.8s-15.871-2.479-21.427-6.8l-1.542-1.2Zm-75.6,1.2-1.542,1.2c-5.556,4.321-13.366,6.8-21.427,6.8s-15.871-2.479-21.427-6.8l-1.542-1.2,1.542-1.2c5.556-4.321,13.366-6.8,21.427-6.8s15.871,2.479,21.427,6.8Zm20.337,8h33.388l6.546,72H232.76Zm37.381-16H235.313l-24-24h89.374ZM187.81,223.123l8.89,8.89c-.234,0-.466-.013-.7-.013-11.719,0-22.817,3.612-31.25,10.17l-1.48,1.152-13.289-31.007Zm-23.8,46.134.736.573C173.183,276.388,184.281,280,196,280a52.362,52.362,0,0,0,26.413-6.9l-5.588,61.466-70.319-12.785ZM240,384.944l12.422,6.211a8,8,0,0,0,7.156,0L272,384.944l16.845,8.423L269.333,408H242.667l-19.512-14.633Zm26.037-14.907L256,375.056l-10.037-5.019L236.944,352h38.112Zm29.138-35.473L289.587,273.1A52.362,52.362,0,0,0,316,280c11.719,0,22.817-3.612,31.25-10.17l.736-.573,17.508,52.522Zm53.555-91.242-1.48-1.152C338.817,235.612,327.719,232,316,232c-.234,0-.466.011-.7.013l8.89-8.89,37.829-10.808ZM318.879,208H193.121l-48.495-13.856,1.571-15.716A55.825,55.825,0,0,1,201.919,128H310.081A55.825,55.825,0,0,1,365.8,178.428l1.571,15.716ZM136.025,280.149l4.847-48.472,10.577,24.679-14.241,42.722Zm82.609,71.007,10.633,21.266-20,10-46.629-41.447Zm84.1,31.266-20-10,10.633-21.266,56-10.181Zm57.818-126.066,10.577-24.679,4.847,48.472-1.183,18.929ZM104,296V256a8.008,8.008,0,0,1,5.086-7.443l11,32.983,2.726,43.62A32.124,32.124,0,0,1,104,296Zm63.6,127.92a72.292,72.292,0,0,1-25.767-50.82L139.9,342.172l61.633,54.784,40.686,81.372a58.366,58.366,0,0,1-23.536-11.838Zm176.8,0h0l-51.083,42.57a58.366,58.366,0,0,1-23.536,11.838l40.686-81.372L372.1,342.172,370.166,373.1A72.292,72.292,0,0,1,344.4,423.92ZM408,296a32.124,32.124,0,0,1-18.807,29.16l2.726-43.62,11-32.983A8.008,8.008,0,0,1,408,256Z"/></svg>
