<?xml version="1.0" encoding="UTF-8"?>
<svg width="1130px" height="776px" viewBox="0 0 1130 776" version="1.1" xmlns="http://www.w3.org/2000/svg" xmlns:xlink="http://www.w3.org/1999/xlink">
    <!-- Generator: Sketch 49.3 (51167) - http://www.bohemiancoding.com/sketch -->
    <title>support</title>
    <desc>Created with Sketch.</desc>
    <defs></defs>
    <g id="Page-1" stroke="none" stroke-width="1" fill="none" fill-rule="evenodd">
        <g id="support" transform="translate(0.000000, -1.000000)">
            <path d="M468.6,765.57 C545.67,722.92 633.71,709.29 719.75,727.57 C841.67,753.49 994.9,743.33 1024.58,543.36 C1075.27,201.84 862.85,111.7 862.85,111.7 C862.85,111.7 721.59,99.87 638.06,54.83 C519.41,-9.17 383.79,-17.32 264.54,36.83 C188.28,71.43 125.48,119.61 114.75,185.76 C84.75,370.76 134.02,472.69 41.85,533.08 C-50.32,593.47 28.45,759.27 99.11,753.53 C169.77,747.79 329.44,684.82 391.66,757.76 C413.76,783.63 441.72,780.45 468.6,765.57 Z" id="Shape" fill="#1A61FF" fill-rule="nonzero" opacity="0.1"></path>
            <rect id="Rectangle-path" fill="#1A61FF" fill-rule="nonzero" opacity="0.1" x="516.27" y="151.21" width="318" height="22"></rect>
            <rect id="Rectangle-path" fill="#1A61FF" fill-rule="nonzero" opacity="0.1" x="516.27" y="246.21" width="318" height="22"></rect>
            <rect id="Rectangle-path" fill="#1A61FF" fill-rule="nonzero" opacity="0.1" x="516.27" y="345.21" width="318" height="22"></rect>
            <rect id="Rectangle-path" fill="#1A61FF" fill-rule="nonzero" opacity="0.1" x="544.27" y="94.21" width="20" height="57"></rect>
            <rect id="Rectangle-path" fill="#1A61FF" fill-rule="nonzero" opacity="0.1" x="544.27" y="103.21" width="20" height="4"></rect>
            <rect id="Rectangle-path" fill="#1A61FF" fill-rule="nonzero" opacity="0.1" x="544.27" y="134.21" width="20" height="4"></rect>
            <rect id="Rectangle-path" fill="#1A61FF" fill-rule="nonzero" opacity="0.1" x="574.27" y="94.21" width="20" height="57"></rect>
            <rect id="Rectangle-path" fill="#1A61FF" fill-rule="nonzero" opacity="0.1" x="574.27" y="103.21" width="20" height="4"></rect>
            <rect id="Rectangle-path" fill="#1A61FF" fill-rule="nonzero" opacity="0.1" x="574.27" y="134.21" width="20" height="4"></rect>
            <rect id="Rectangle-path" fill="#1A61FF" fill-rule="nonzero" opacity="0.1" x="604.27" y="94.21" width="20" height="57"></rect>
            <rect id="Rectangle-path" fill="#1A61FF" fill-rule="nonzero" opacity="0.1" x="604.27" y="103.21" width="20" height="4"></rect>
            <rect id="Rectangle-path" fill="#1A61FF" fill-rule="nonzero" opacity="0.1" x="604.27" y="134.21" width="20" height="4"></rect>
            <rect id="Rectangle-path" fill="#1A61FF" fill-rule="nonzero" opacity="0.1" x="634.27" y="94.21" width="20" height="57"></rect>
            <rect id="Rectangle-path" fill="#1A61FF" fill-rule="nonzero" opacity="0.1" x="634.27" y="103.21" width="20" height="4"></rect>
            <rect id="Rectangle-path" fill="#1A61FF" fill-rule="nonzero" opacity="0.1" x="634.27" y="134.21" width="20" height="4"></rect>
            <rect id="Rectangle-path" fill="#1A61FF" fill-rule="nonzero" opacity="0.1" x="664.27" y="94.21" width="20" height="57"></rect>
            <rect id="Rectangle-path" fill="#1A61FF" fill-rule="nonzero" opacity="0.1" x="664.27" y="103.21" width="20" height="4"></rect>
            <rect id="Rectangle-path" fill="#1A61FF" fill-rule="nonzero" opacity="0.1" x="664.27" y="134.21" width="20" height="4"></rect>
            <rect id="Rectangle-path" fill="#1A61FF" fill-rule="nonzero" opacity="0.1" x="694.27" y="94.21" width="20" height="57"></rect>
            <rect id="Rectangle-path" fill="#1A61FF" fill-rule="nonzero" opacity="0.1" x="694.27" y="103.21" width="20" height="4"></rect>
            <rect id="Rectangle-path" fill="#1A61FF" fill-rule="nonzero" opacity="0.1" x="694.27" y="134.21" width="20" height="4"></rect>
            <rect id="Rectangle-path" fill="#1A61FF" fill-rule="nonzero" opacity="0.1" x="724.27" y="94.21" width="20" height="57"></rect>
            <rect id="Rectangle-path" fill="#1A61FF" fill-rule="nonzero" opacity="0.1" x="724.27" y="103.21" width="20" height="4"></rect>
            <rect id="Rectangle-path" fill="#1A61FF" fill-rule="nonzero" opacity="0.1" x="724.27" y="134.21" width="20" height="4"></rect>
            <rect id="Rectangle-path" fill="#1A61FF" fill-rule="nonzero" opacity="0.1" transform="translate(736.265390, 316.668643) rotate(-26.630000) translate(-736.265390, -316.668643) " x="726.26539" y="288.168643" width="20" height="57"></rect>
            <rect id="Rectangle-path" fill="#1A61FF" fill-rule="nonzero" opacity="0.1" transform="translate(728.426787, 301.031841) rotate(-26.630000) translate(-728.426787, -301.031841) " x="718.426787" y="299.031841" width="20" height="4"></rect>
            <rect id="Rectangle-path" fill="#1A61FF" fill-rule="nonzero" opacity="0.1" transform="translate(742.313707, 328.746479) rotate(-26.630000) translate(-742.313707, -328.746479) " x="732.313707" y="326.746479" width="20" height="4"></rect>
            <rect id="Rectangle-path" fill="#1A61FF" fill-rule="nonzero" opacity="0.1" x="544.27" y="190.21" width="20" height="57"></rect>
            <rect id="Rectangle-path" fill="#1A61FF" fill-rule="nonzero" opacity="0.1" x="544.27" y="199.21" width="20" height="4"></rect>
            <rect id="Rectangle-path" fill="#1A61FF" fill-rule="nonzero" opacity="0.1" x="544.27" y="230.21" width="20" height="4"></rect>
            <rect id="Rectangle-path" fill="#1A61FF" fill-rule="nonzero" opacity="0.1" x="574.27" y="190.21" width="20" height="57"></rect>
            <rect id="Rectangle-path" fill="#1A61FF" fill-rule="nonzero" opacity="0.1" x="574.27" y="199.21" width="20" height="4"></rect>
            <rect id="Rectangle-path" fill="#1A61FF" fill-rule="nonzero" opacity="0.1" x="574.27" y="230.21" width="20" height="4"></rect>
            <rect id="Rectangle-path" fill="#1A61FF" fill-rule="nonzero" opacity="0.1" x="604.27" y="190.21" width="20" height="57"></rect>
            <rect id="Rectangle-path" fill="#1A61FF" fill-rule="nonzero" opacity="0.1" x="604.27" y="199.21" width="20" height="4"></rect>
            <rect id="Rectangle-path" fill="#1A61FF" fill-rule="nonzero" opacity="0.1" x="604.27" y="230.21" width="20" height="4"></rect>
            <rect id="Rectangle-path" fill="#1A61FF" fill-rule="nonzero" opacity="0.1" x="729.27" y="190.21" width="20" height="57"></rect>
            <rect id="Rectangle-path" fill="#1A61FF" fill-rule="nonzero" opacity="0.1" x="729.27" y="199.21" width="20" height="4"></rect>
            <rect id="Rectangle-path" fill="#1A61FF" fill-rule="nonzero" opacity="0.1" x="729.27" y="230.21" width="20" height="4"></rect>
            <rect id="Rectangle-path" fill="#1A61FF" fill-rule="nonzero" opacity="0.1" x="759.27" y="190.21" width="20" height="57"></rect>
            <rect id="Rectangle-path" fill="#1A61FF" fill-rule="nonzero" opacity="0.1" x="759.27" y="199.21" width="20" height="4"></rect>
            <rect id="Rectangle-path" fill="#1A61FF" fill-rule="nonzero" opacity="0.1" x="759.27" y="230.21" width="20" height="4"></rect>
            <rect id="Rectangle-path" fill="#1A61FF" fill-rule="nonzero" opacity="0.1" x="789.27" y="190.21" width="20" height="57"></rect>
            <rect id="Rectangle-path" fill="#1A61FF" fill-rule="nonzero" opacity="0.1" x="789.27" y="199.21" width="20" height="4"></rect>
            <rect id="Rectangle-path" fill="#1A61FF" fill-rule="nonzero" opacity="0.1" x="789.27" y="230.21" width="20" height="4"></rect>
            <rect id="Rectangle-path" fill="#1A61FF" fill-rule="nonzero" opacity="0.1" x="544.27" y="288.21" width="20" height="57"></rect>
            <rect id="Rectangle-path" fill="#1A61FF" fill-rule="nonzero" opacity="0.1" x="544.27" y="297.21" width="20" height="4"></rect>
            <rect id="Rectangle-path" fill="#1A61FF" fill-rule="nonzero" opacity="0.1" x="544.27" y="328.21" width="20" height="4"></rect>
            <rect id="Rectangle-path" fill="#1A61FF" fill-rule="nonzero" opacity="0.1" x="574.27" y="288.21" width="20" height="57"></rect>
            <rect id="Rectangle-path" fill="#1A61FF" fill-rule="nonzero" opacity="0.1" x="574.27" y="297.21" width="20" height="4"></rect>
            <rect id="Rectangle-path" fill="#1A61FF" fill-rule="nonzero" opacity="0.1" x="574.27" y="328.21" width="20" height="4"></rect>
            <rect id="Rectangle-path" fill="#1A61FF" fill-rule="nonzero" opacity="0.1" x="604.27" y="288.21" width="20" height="57"></rect>
            <rect id="Rectangle-path" fill="#1A61FF" fill-rule="nonzero" opacity="0.1" x="604.27" y="297.21" width="20" height="4"></rect>
            <rect id="Rectangle-path" fill="#1A61FF" fill-rule="nonzero" opacity="0.1" x="604.27" y="328.21" width="20" height="4"></rect>
            <rect id="Rectangle-path" fill="#1A61FF" fill-rule="nonzero" opacity="0.1" x="634.27" y="288.21" width="20" height="57"></rect>
            <rect id="Rectangle-path" fill="#1A61FF" fill-rule="nonzero" opacity="0.1" x="634.27" y="297.21" width="20" height="4"></rect>
            <rect id="Rectangle-path" fill="#1A61FF" fill-rule="nonzero" opacity="0.1" x="634.27" y="328.21" width="20" height="4"></rect>
            <rect id="Rectangle-path" fill="#1A61FF" fill-rule="nonzero" opacity="0.1" x="664.27" y="288.21" width="20" height="57"></rect>
            <rect id="Rectangle-path" fill="#1A61FF" fill-rule="nonzero" opacity="0.1" x="664.27" y="297.21" width="20" height="4"></rect>
            <rect id="Rectangle-path" fill="#1A61FF" fill-rule="nonzero" opacity="0.1" x="664.27" y="328.21" width="20" height="4"></rect>
            <rect id="Rectangle-path" fill="#1A61FF" fill-rule="nonzero" opacity="0.1" x="694.27" y="288.21" width="20" height="57"></rect>
            <rect id="Rectangle-path" fill="#1A61FF" fill-rule="nonzero" opacity="0.1" x="694.27" y="297.21" width="20" height="4"></rect>
            <rect id="Rectangle-path" fill="#1A61FF" fill-rule="nonzero" opacity="0.1" x="694.27" y="328.21" width="20" height="4"></rect>
            <path d="M774.27,99.29 L774.27,151.21 L754.27,151.21 L754.27,95.48 C760.963333,96.66 767.63,97.93 774.27,99.29 Z" id="Shape" fill="#1A61FF" fill-rule="nonzero" opacity="0.1"></path>
            <rect id="Rectangle-path" fill="#1A61FF" fill-rule="nonzero" opacity="0.1" x="754.27" y="103.21" width="20" height="4"></rect>
            <rect id="Rectangle-path" fill="#1A61FF" fill-rule="nonzero" opacity="0.1" x="754.27" y="134.21" width="20" height="4"></rect>
            <path d="M804.27,106.23 L804.27,151.23 L784.27,151.23 L784.27,101.43 C786.87,102 789.46,102.6 792.05,103.21 C796.143333,104.17 800.216667,105.176667 804.27,106.23 Z" id="Shape" fill="#1A61FF" fill-rule="nonzero" opacity="0.1"></path>
            <path d="M804.27,106.23 L804.27,107.23 L784.27,107.23 L784.27,103.23 L792.05,103.23 C796.143333,104.176667 800.216667,105.176667 804.27,106.23 Z" id="Shape" fill="#1A61FF" fill-rule="nonzero" opacity="0.1"></path>
            <rect id="Rectangle-path" fill="#1A61FF" fill-rule="nonzero" opacity="0.1" x="784.27" y="134.21" width="20" height="4"></rect>
            <g id="Group" opacity="0.1" transform="translate(654.000000, 215.000000)" fill="#1A61FF" fill-rule="nonzero">
                <path d="M10.66,11.49 C10.66,11.49 4.6,9.43 1.66,14.78 C0.0974951117,17.7234262 0.146523409,21.2610064 1.79,24.16 C3.71,27.62 7.66,32.16 15.14,31.72 C21.49,31.38 23.6,26.54 24.14,22.03 C24.5609667,18.600277 23.1814544,15.1962487 20.49155,13.0272335 C17.8016455,10.8582183 14.1825551,10.2316031 10.92,11.37 L10.66,11.49 Z" id="Shape"></path>
                <path d="M3.11,24.65 C1.46652341,21.7510064 1.41749511,18.2134262 2.98,15.27 C5.9,9.93 11.98,11.98 11.98,11.98 L12.29,11.87 C14.6035371,11.032799 17.1463471,11.0898606 19.42,12.03 C16.8782154,10.5164647 13.7915646,10.2228475 11.01,11.23 L10.7,11.34 C10.7,11.34 4.64,9.28 1.7,14.63 C0.137495112,17.5734262 0.186523409,21.1110064 1.83,24.01 C3.3327305,26.874938 5.74622654,29.15826 8.69,30.5 C6.32965862,29.0974341 4.39955148,27.0739347 3.11,24.65 Z" id="Shape"></path>
                <path d="M7.53,14.06 C7.53,14.06 9.78,15.83 15.24,14.06" id="Shape" opacity="0.2"></path>
                <path d="M7.04,1.21 C7.04,1.21 10.89,11.65 10.57,14.38 L13.62,14.06 C13.62,14.06 8.48,4.91 9.77,1.21 L7.04,1.21 Z" id="Shape"></path>
                <path d="M7.04,1.21 C7.04,1.21 10.89,11.65 10.57,14.38 L13.62,14.06 C13.62,14.06 8.48,4.91 9.77,1.21 L7.04,1.21 Z" id="Shape" opacity="0.2"></path>
                <path d="M22.78,2.09 C22.78,2.09 16.71,-1.01 14,1.55 C11.29,4.11 10.87,10.66 10.87,10.66 C10.87,10.66 20.76,12 22.78,2.09 Z" id="Shape"></path>
                <path d="M22.78,2.09 C22.78,2.09 16.71,-1.01 14,1.55 C11.29,4.11 10.87,10.66 10.87,10.66 C10.87,10.66 20.76,12 22.78,2.09 Z" id="Shape"></path>
                <path d="M10.86,10.66 C10.86,10.66 12.45,3.06 22.77,2.08" id="Shape"></path>
            </g>
            <g id="Group" opacity="0.1" transform="translate(782.000000, 314.000000)" fill="#1A61FF" fill-rule="nonzero">
                <path d="M10.66,11.49 C10.66,11.49 4.6,9.43 1.66,14.78 C0.0974951117,17.7234262 0.146523409,21.2610064 1.79,24.16 C3.71,27.62 7.66,32.16 15.14,31.72 C21.49,31.38 23.6,26.54 24.14,22.03 C24.5609667,18.600277 23.1814544,15.1962487 20.49155,13.0272335 C17.8016455,10.8582183 14.1825551,10.2316031 10.92,11.37 L10.66,11.49 Z" id="Shape"></path>
                <path d="M3.11,24.65 C1.46652341,21.7510064 1.41749511,18.2134262 2.98,15.27 C5.9,9.93 11.98,11.98 11.98,11.98 L12.29,11.87 C14.6035371,11.032799 17.1463471,11.0898606 19.42,12.03 C16.8782154,10.5164647 13.7915646,10.2228475 11.01,11.23 L10.7,11.34 C10.7,11.34 4.64,9.28 1.7,14.63 C0.137495112,17.5734262 0.186523409,21.1110064 1.83,24.01 C3.3327305,26.874938 5.74622654,29.15826 8.69,30.5 C6.32965862,29.0974341 4.39955148,27.0739347 3.11,24.65 Z" id="Shape"></path>
                <path d="M7.53,14.06 C7.53,14.06 9.78,15.83 15.24,14.06" id="Shape" opacity="0.2"></path>
                <path d="M7.04,1.21 C7.04,1.21 10.89,11.65 10.57,14.38 L13.62,14.06 C13.62,14.06 8.48,4.91 9.77,1.21 L7.04,1.21 Z" id="Shape"></path>
                <path d="M7.04,1.21 C7.04,1.21 10.89,11.65 10.57,14.38 L13.62,14.06 C13.62,14.06 8.48,4.91 9.77,1.21 L7.04,1.21 Z" id="Shape" opacity="0.2"></path>
                <path d="M22.78,2.09 C22.78,2.09 16.71,-1.01 14,1.55 C11.29,4.11 10.87,10.66 10.87,10.66 C10.87,10.66 20.76,12 22.78,2.09 Z" id="Shape"></path>
                <path d="M22.78,2.09 C22.78,2.09 16.71,-1.01 14,1.55 C11.29,4.11 10.87,10.66 10.87,10.66 C10.87,10.66 20.76,12 22.78,2.09 Z" id="Shape"></path>
                <path d="M10.86,10.66 C10.86,10.66 12.45,3.06 22.77,2.08" id="Shape"></path>
            </g>
            <ellipse id="Oval" fill="#000000" fill-rule="nonzero" opacity="0.1" cx="995.02" cy="611.84" rx="54" ry="19.2"></ellipse>
            <path d="M995.06,612 C995.06,612 1025.87,507.41 989.28,430.42 C973.93,398.11 968.83,361.84 975.92,326.78 C979.313702,310.149276 984.224233,293.864522 990.59,278.13" id="Shape" stroke="#535461" stroke-width="2"></path>
            <path d="M967.83,229.47 C967.83,242.29 991.04,279.47 991.04,279.47 C991.04,279.47 1014.25,242.3 1014.25,229.47 C1014.25,216.651471 1003.85853,206.26 991.04,206.26 C978.221471,206.26 967.83,216.651471 967.83,229.47 Z" id="Shape" fill="#1A61FF" fill-rule="nonzero"></path>
            <path d="M929.46,300.47 C936.46,311.23 976.11,329.82 976.11,329.82 C976.11,329.82 975.39,286 968.42,275.24 C963.913095,268.273321 956.031863,264.240249 947.745089,264.660004 C939.458315,265.079759 932.024957,269.88857 928.245089,277.275004 C924.46522,284.661438 924.913094,293.503321 929.42,300.47 L929.46,300.47 Z" id="Shape" fill="#1A61FF" fill-rule="nonzero"></path>
            <path d="M931.11,421.81 C942.56,427.58 986.2,423.59 986.2,423.59 C986.2,423.59 963.46,386.13 952.01,380.36 C944.605671,376.626574 935.772029,377.126909 928.836623,381.672534 C921.901217,386.218159 917.917699,394.118484 918.386623,402.397534 C918.855546,410.676585 923.70567,418.076575 931.11,421.81 Z" id="Shape" fill="#1A61FF" fill-rule="nonzero"></path>
            <path d="M953.11,513.33 C963.42,520.95 1007.11,524.4 1007.11,524.4 C1007.11,524.4 991.03,483.63 980.72,476.01 C974.053424,471.077948 965.262035,470.07712 957.657465,473.384518 C950.052895,476.691916 944.790458,483.805069 943.852465,492.044519 C942.914471,500.283969 946.443423,508.397949 953.11,513.33 Z" id="Shape" fill="#1A61FF" fill-rule="nonzero"></path>
            <path d="M1024.85,332.3 C1015.66,341.23 972.85,350.48 972.85,350.48 C972.85,350.48 983.34,307.93 992.53,299 C998.46959,293.175335 1007.07226,290.974937 1015.07909,293.23237 C1023.08593,295.489804 1029.27228,301.85979 1031.29459,309.92922 C1033.31691,317.99865 1030.86587,326.533288 1024.87,332.3 L1024.85,332.3 Z" id="Shape" fill="#1A61FF" fill-rule="nonzero"></path>
            <path d="M1049.11,439.66 C1037.66,445.43 994.02,441.44 994.02,441.44 C994.02,441.44 1016.76,403.98 1028.21,398.21 C1035.61433,394.476574 1044.44797,394.976909 1051.38338,399.522534 C1058.31878,404.068159 1062.3023,411.968484 1061.83338,420.247534 C1061.36445,428.526585 1056.51433,435.926575 1049.11,439.66 Z" id="Shape" fill="#1A61FF" fill-rule="nonzero"></path>
            <path d="M1058.45,547.25 C1048.14,554.87 1004.45,558.32 1004.45,558.32 C1004.45,558.32 1020.53,517.55 1030.84,509.93 C1037.5007,504.886906 1046.35782,503.812645 1054.03099,507.117213 C1061.70416,510.421781 1067.00928,517.595223 1067.92162,525.899762 C1068.83396,534.204302 1065.21274,542.358397 1058.44,547.25 L1058.45,547.25 Z" id="Shape" fill="#1A61FF" fill-rule="nonzero"></path>
            <ellipse id="Oval" fill="#000000" fill-rule="nonzero" opacity="0.1" cx="860.62" cy="556.64" rx="54" ry="19.2"></ellipse>
            <path d="M858.43,559.37 C858.43,559.37 872.86,510.37 855.72,474.3 C848.433732,459.217154 846.237118,442.177608 849.46,425.74 C851.052466,417.949148 853.355426,410.320593 856.34,402.95" id="Shape" stroke="#535461" stroke-width="2"></path>
            <path d="M845.67,380.15 C845.67,386.15 856.54,403.57 856.54,403.57 C856.54,403.57 867.41,386.15 867.41,380.15 C867.41,374.143903 862.541097,369.275 856.535,369.275 C850.528903,369.275 845.66,374.143903 845.66,380.15 L845.67,380.15 Z" id="Shape" fill="#1A61FF" fill-rule="nonzero"></path>
            <path d="M827.7,413.41 C830.96,418.41 849.56,427.16 849.56,427.16 C849.56,427.16 849.22,406.63 845.96,401.59 C843.84856,398.328165 840.157342,396.440545 836.27679,396.638188 C832.396238,396.83583 828.915901,399.08871 827.146789,402.548188 C825.377677,406.007666 825.58856,410.148165 827.7,413.41 Z" id="Shape" fill="#1A61FF" fill-rule="nonzero"></path>
            <path d="M828.48,470.26 C833.84,472.96 854.29,471.1 854.29,471.1 C854.29,471.1 843.64,453.55 838.29,450.84 C832.927315,448.136566 826.388434,450.292315 823.685,455.655 C820.981566,461.017685 823.137315,467.556566 828.5,470.26 L828.48,470.26 Z" id="Shape" fill="#1A61FF" fill-rule="nonzero"></path>
            <path d="M838.76,513.14 C843.59,516.71 864.06,518.33 864.06,518.33 C864.06,518.33 856.52,499.23 851.7,495.66 C848.575712,493.350278 844.456529,492.882794 840.894108,494.433645 C837.331686,495.984497 834.867242,499.318072 834.429107,503.178646 C833.990973,507.039219 835.645712,510.840278 838.77,513.15 L838.76,513.14 Z" id="Shape" fill="#1A61FF" fill-rule="nonzero"></path>
            <path d="M872.39,428.33 C868.08,432.51 848.01,436.85 848.01,436.85 C848.01,436.85 852.93,416.91 857.23,412.73 C861.537821,408.546443 868.421443,408.647179 872.605,412.955 C876.788556,417.262821 876.687821,424.146443 872.38,428.33 L872.39,428.33 Z" id="Shape" fill="#1A61FF" fill-rule="nonzero"></path>
            <path d="M883.78,478.63 C878.42,481.33 857.97,479.47 857.97,479.47 C857.97,479.47 868.62,461.92 873.97,459.21 C879.332685,456.506566 885.871566,458.662315 888.575,464.025 C891.278434,469.387685 889.122685,475.926566 883.76,478.63 L883.78,478.63 Z" id="Shape" fill="#1A61FF" fill-rule="nonzero"></path>
            <path d="M888.11,529 C883.28,532.57 862.81,534.19 862.81,534.19 C862.81,534.19 870.35,515.09 875.17,511.52 C878.292501,509.208491 882.410987,508.738404 885.974062,510.286815 C889.537138,511.835227 892.003488,515.166896 892.444062,519.026816 C892.884637,522.886735 891.232501,526.688492 888.11,529 Z" id="Shape" fill="#1A61FF" fill-rule="nonzero"></path>
            <path d="M421.780073,154.22 L430.310073,154.22 L430.310073,213.22 L421.780073,213.22 C408.21596,213.22 397.220073,202.224113 397.220073,188.66 L397.220073,178.84 C397.204135,172.315893 399.784661,166.053536 404.392283,161.434658 C408.999905,156.815779 415.255947,154.219981 421.780073,154.22 Z" id="Shape" fill="#DFE6F5" fill-rule="nonzero" transform="translate(413.765037, 183.720000) rotate(-180.000000) translate(-413.765037, -183.720000) "></path>
            <rect id="Rectangle-path" fill="#535461" fill-rule="nonzero" transform="translate(397.220000, 183.745000) rotate(-180.000000) translate(-397.220000, -183.745000) " x="389.98" y="154.27" width="14.48" height="58.95" rx="6.03"></rect>
            <g id="Group" opacity="0.1" transform="translate(389.000000, 154.000000)" fill="#000000" fill-rule="nonzero">
                <path d="M32.7800734,0.22 L41.3100734,0.22 L41.3100734,59.22 L32.7800734,59.22 C19.2159599,59.22 8.2200734,48.2241135 8.2200734,34.66 L8.2200734,24.84 C8.20413498,18.3158935 10.7846611,12.0535362 15.3922832,7.43465769 C19.9999053,2.81577918 26.2559474,0.219980531 32.7800734,0.22 Z" id="Shape" transform="translate(24.765037, 29.720000) rotate(-180.000000) translate(-24.765037, -29.720000) "></path>
                <rect id="Rectangle-path" transform="translate(8.220000, 29.745000) rotate(-180.000000) translate(-8.220000, -29.745000) " x="0.98" y="0.27" width="14.48" height="58.95" rx="6.03"></rect>
            </g>
            <rect id="Rectangle-path" fill="#865A61" fill-rule="nonzero" x="260.72" y="185.45" width="149.09" height="154.65"></rect>
            <rect id="Rectangle-path" fill="#000000" fill-rule="nonzero" opacity="0.1" x="260.72" y="164.15" width="149.09" height="154.65"></rect>
            <path d="M404.72,313.71 L395.72,379.11 L391.48,409.85 L389.92,421.14 L376.85,446.62 L352.85,493.38 L306.55,498.94 L225.11,384.09 C225.11,384.09 182.47,302.6 247.3,310 C283.65,314.16 292.3,281.62 292.95,252.23 C293.113357,237.432479 291.773145,222.656636 288.95,208.13 L353.77,239.62 C352.263333,246.64 351.13,253.09 350.37,258.97 C347.21,283.03 349.83,298.03 355.31,307.12 C369.9,331.33 404.72,313.71 404.72,313.71 Z" id="Shape" fill="#FDC2CC" fill-rule="nonzero"></path>
            <path d="M353.79,239.63 C352.283333,246.65 351.15,253.1 350.39,258.98 C343.663562,260.894288 336.70353,261.863577 329.71,261.86 C316.832841,261.881286 304.169205,258.570689 292.95,252.25 C293.113357,237.452479 291.773145,222.676636 288.95,208.15 L353.79,239.63 Z" id="Shape" fill="#000000" fill-rule="nonzero" opacity="0.1"></path>
            <circle id="Oval" fill="#FDC2CC" fill-rule="nonzero" cx="329.71" cy="184.99" r="75.01"></circle>
            <path d="M429.73,611.9 L121.35,636 L171.35,577.66 C225,544.88 224.54,499.82 217.41,471.87 C215.197308,462.912642 211.853788,454.273254 207.46,446.16 L314.05,446.66 L314.95,446.66 L323.71,466.57 L324.11,467.47 L330.63,482.28 L352.85,442.46 L360.58,430 L364.9,423 C364.9,423 428.8,408.18 429.72,446.15 C429.830753,450.509769 429.6604,454.872144 429.21,459.21 C426.03,489.77 409.31,510.09 395.46,523.94 C379.72,539.67 429.73,611.9 429.73,611.9 Z" id="Shape" fill="#EC7580" fill-rule="nonzero"></path>
            <path d="M392.9,530.54 C390.64,539.54 396.34,555.01 403.9,570.2 C367.65,574.1 327.9,572.07 327.9,572.07 L287.11,583.19 L172.29,616.53 C167.29,610.06 163.29,601.93 159.98,592.77 L171.36,579.49 C207.17,557.61 218.87,530.26 220.58,506.18 C221.260425,495.250878 220.193698,484.283171 217.42,473.69 C215.208871,464.739992 211.868755,456.107439 207.48,448 L314.07,448.5 L314.97,448.5 L323.73,468.41 L324.13,469.31 L330.65,484.12 L352.87,444.3 L360.58,431.84 L364.9,424.84 C364.9,424.84 428.8,410 429.73,448 C429.840753,452.359769 429.6704,456.722144 429.22,461.06 C426.04,491.62 409.32,511.94 395.47,525.79 C394.193901,527.107659 393.304807,528.750926 392.9,530.54 Z" id="Shape" fill="#EC7580" fill-rule="nonzero"></path>
            <path d="M633.46,578.56 C631.61,600.78 577.9,571.15 577.9,571.15 C577.9,571.15 561.23,565.59 504.74,529.48 C476.059976,511.150915 453.444098,484.746008 439.74,453.59 C437.579247,448.77419 435.771156,443.80779 434.33,438.73 L473.25,410 L484.6,427.35 L522.33,485 L577.89,522 C577.89,522 635.31,556.34 633.46,578.56 Z" id="Shape" fill="#FDC2CC" fill-rule="nonzero"></path>
            <polygon id="Shape" fill="#CBCDDA" fill-rule="nonzero" points="1127.96 651.72 60.23 651.72 167.12 620.09 434.34 541.01 604.74 490.58 824.22 490.58"></polygon>
            <polygon id="Shape" fill="#CBCDDA" fill-rule="nonzero" points="60.23 651.72 57.45 700.8 1129.81 700.8 1127.96 651.72"></polygon>
            <polygon id="Shape" fill="#000000" fill-rule="nonzero" opacity="0.1" points="60.23 651.72 57.45 700.8 1129.81 700.8 1127.96 651.72"></polygon>
            <path d="M340.16,582.31 L565.85,559.12 L568.63,603.57 L465.47,613.8 C458.353921,614.377694 451.191247,613.820747 444.25,612.15 L339.97,585.21 C339.284077,585.030213 338.822054,584.389179 338.868412,583.681603 C338.914771,582.974027 339.456483,582.398755 340.16,582.31 Z" id="Shape" fill="#535461" fill-rule="nonzero"></path>
            <path d="M340.16,582.31 L565.85,559.12 L568.63,603.57 L465.47,613.8 C458.353921,614.377694 451.191247,613.820747 444.25,612.15 L339.97,585.21 C339.284077,585.030213 338.822054,584.389179 338.868412,583.681603 C338.914771,582.974027 339.456483,582.398755 340.16,582.31 Z" id="Shape" fill="#000000" fill-rule="nonzero" opacity="0.2"></path>
            <path d="M340.16,581.38 L567.71,558.19 L570.49,602.64 L467.32,611 C460.208821,611.586441 453.049627,611.039628 446.11,609.38 L339.97,584.29 C339.270679,584.120753 338.7944,583.473082 338.841279,582.755101 C338.888157,582.03712 339.444609,581.456878 340.16,581.38 Z" id="Shape" fill="#535461" fill-rule="nonzero"></path>
            <path d="M394.11,583 L514.43,570.74 L515.9,594.24 L461.35,598.67 C457.587527,598.976197 453.800298,598.682535 450.13,597.8 L394.01,584.53 C393.646399,584.436898 393.400663,584.098038 393.425143,583.723506 C393.449622,583.348974 393.737374,583.044983 394.11,583 Z" id="Shape" fill="#FFFFFF" fill-rule="nonzero" opacity="0.3"></path>
            <path d="M484.6,427.37 C483.87,428.37 482.6,428.82 480.66,428.54 C462.14,425.76 440.84,452.62 440.84,452.62 C440.84,452.62 440.46,452.98 439.77,453.62 C437.609247,448.80419 435.801156,443.83779 434.36,438.76 L473.25,410 L484.6,427.37 Z" id="Shape" fill="#000000" fill-rule="nonzero" opacity="0.1"></path>
            <path d="M429.22,461 C420.51,465.85 408.52,469.33 399.17,460 C383.02,443.85 354.71,446 352.95,446.1 C355.84,445.7 358.4,439.76 360.58,431.8 L364.9,424.8 C364.9,424.8 428.8,410 429.73,448 C429.838178,452.339781 429.667828,456.682032 429.22,461 Z" id="Shape" fill="#000000" fill-rule="nonzero" opacity="0.1"></path>
            <path d="M395.7,379.11 L389.9,421.11 L376.83,446.59 C368.730159,444.515907 360.354338,443.72962 352.01,444.26 C361.22,442.99 367.17,385.44 367.17,385.44 L367.7,385.32 L395.7,379.11 Z" id="Shape" fill="#000000" fill-rule="nonzero" opacity="0.1"></path>
            <path d="M480.66,426.69 C462.14,423.91 440.84,450.77 440.84,450.77 C440.84,450.77 415.84,474.85 399.17,458.18 C383.02,442.03 354.71,444.18 352.95,444.28 C362.16,443 368.11,385.45 368.11,385.45 L368.64,385.33 L457.51,365.57 C457.51,365.57 462.81,373.69 468.79,384.03 C479.58,402.66 492.58,428.48 480.66,426.69 Z" id="Shape" fill="#EC7580" fill-rule="nonzero"></path>
            <path d="M458.43,389.65 C459.36,391.5 443.61,400.76 436.21,397.98 C428.81,395.2 410.28,409.98 408.43,411.87 C406.58,413.76 364.91,409.09 364.91,409.09 C366.638993,401.253908 367.884676,393.318945 368.64,385.33 L457.51,365.57 C457.51,365.57 462.81,373.69 468.79,384.03 C463.26,386.3 457.98,388.74 458.43,389.65 Z" id="Shape" fill="#000000" fill-rule="nonzero" opacity="0.1"></path>
            <path d="M404.72,313.71 L395.72,379.11 L391.48,409.85 C379.06,408.92 364,407.25 364,407.25 C364,407.25 379.74,341.5 353.81,307.25 C353.81,307.25 354.36,307.25 355.35,307.15 C369.9,331.33 404.72,313.71 404.72,313.71 Z" id="Shape" fill="#000000" fill-rule="nonzero" opacity="0.1"></path>
            <path d="M354.72,307.23 C354.72,307.23 401.95,303.53 420.47,316.49 C438.99,329.45 465.85,368.35 465.85,368.35 L480.67,377.61 C480.67,377.61 457.52,385.94 458.45,387.8 C459.38,389.66 443.63,398.91 436.23,396.13 C428.83,393.35 410.3,408.13 408.45,410.02 C406.6,411.91 364.93,407.24 364.93,407.24 C364.93,407.24 380.65,341.49 354.72,307.23 Z" id="Shape" fill="#EC7580" fill-rule="nonzero"></path>
            <path d="M695.94,562.35 C685.22,562.09 433.19,555.55 409.13,528.71 C383.51,500.13 408.38,417.78 429.32,358.32 C452.11,293.59 424.94,200.64 424.67,199.58 L426.46,199.11 C426.74,200.18 454.05,293.67 431.07,358.93 C398.5,451.44 391.77,506.57 410.51,527.47 C434.05,553.72 693.37,560.47 695.99,560.47 L695.94,562.35 Z" id="Shape" fill="#DFE6F5" fill-rule="nonzero"></path>
            <path d="M521.7,331.61 L754.84,328.07 C760.91109,328.68913 766.478558,331.72246 770.290579,336.487956 C774.1026,341.253453 775.839232,347.351148 775.11,353.41 L748.66,573.61 C747.355083,584.52774 738.425495,592.947908 727.45,593.61 L489.16,608.36 C482.327065,608.769638 475.673128,606.07946 471.044846,601.036068 C466.416564,595.992676 464.306406,589.132708 465.3,582.36 L496.94,350.94 C498.702198,338.915659 509.607403,330.402024 521.7,331.61 Z" id="Shape" fill="#535461" fill-rule="nonzero"></path>
            <path d="M521.7,331.61 L754.84,328.07 C760.91109,328.68913 766.478558,331.72246 770.290579,336.487956 C774.1026,341.253453 775.839232,347.351148 775.11,353.41 L748.66,573.61 C747.355083,584.52774 738.425495,592.947908 727.45,593.61 L489.16,608.36 C482.327065,608.769638 475.673128,606.07946 471.044846,601.036068 C466.416564,595.992676 464.306406,589.132708 465.3,582.36 L496.94,350.94 C498.702198,338.915659 509.607403,330.402024 521.7,331.61 Z" id="Shape" fill="#000000" fill-rule="nonzero" opacity="0.2"></path>
            <path d="M523.55,331.61 L756.69,328.07 C762.768323,328.679142 768.345953,331.70822 772.166427,336.474878 C775.986902,341.241536 777.728899,347.344873 777,353.41 L750.55,573.61 C749.245083,584.52774 740.315495,592.947908 729.34,593.61 L491.02,608.36 C484.187065,608.769638 477.533128,606.07946 472.904846,601.036068 C468.276564,595.992676 466.166406,589.132708 467.16,582.36 L498.8,350.94 C500.562112,338.919907 511.461073,330.407708 523.55,331.61 Z" id="Shape" fill="#535461" fill-rule="nonzero"></path>
            <circle id="Oval" fill="#FFFFFF" fill-rule="nonzero" opacity="0.3" cx="637.62" cy="456.78" r="11.11"></circle>
            <path d="M403.9,570.21 C367.65,574.11 327.9,572.08 327.9,572.08 L287.11,583.19 L172.29,616.53 C167.29,610.06 163.29,601.93 159.98,592.77 L171.36,579.49 C207.17,557.61 218.87,530.26 220.58,506.18 C223.64,530.13 224.15,551.7 224.15,551.7 L270.45,547.07 L337.72,531.07 C342.352363,529.967648 347.098285,529.413845 351.86,529.42 C360.62,529.42 376.21,529.61 392.86,530.51 C390.64,539.52 396.34,555 403.9,570.21 Z" id="Shape" fill="#000000" fill-rule="nonzero" opacity="0.1"></path>
            <path d="M454.73,558.19 C433.43,583.19 324.16,577.64 324.16,577.64 L283.41,588.75 L168.58,622.08 C168.08,621.43 167.58,620.77 167.12,620.08 L434.35,541 C451.41,544.44 461.88,549.8 454.73,558.19 Z" id="Shape" fill="#000000" fill-rule="nonzero" opacity="0.1"></path>
            <path d="M454.73,556.34 C433.43,581.34 324.16,575.79 324.16,575.79 L283.41,586.89 L168.58,620.23 C141.58,585.23 142.18,501.82 143.65,468.08 C144.05,459.02 144.5,453.54 144.5,453.54 C144.5,453.54 183.39,429.46 200.99,453.54 C204.13,457.83 206.76,463.83 208.99,470.79 C219.2,502.88 220.45,555.4 220.45,555.4 L266.75,550.77 L334.02,534.77 C338.655681,533.667234 343.404962,533.113431 348.17,533.12 C376.05,533.2 473.01,534.88 454.73,556.34 Z" id="Shape" fill="#FDC2CC" fill-rule="nonzero"></path>
            <path d="M208.98,470.8 C203.07,469.52 195.9,469.8 186.18,473.92 C166.73,482.25 151.92,480.4 151.92,480.4 C151.92,480.4 153.11,470.95 143.66,468.08 C144.06,459.02 144.51,453.54 144.51,453.54 C144.51,453.54 183.4,429.46 201,453.54 C204.11,457.83 206.76,463.83 208.98,470.8 Z" id="Shape" fill="#000000" fill-rule="nonzero" opacity="0.1"></path>
            <path d="M324.11,469.29 C323.49,469.42 315.16,470.99 299.11,467.43 C282.44,463.73 275.96,471.13 266.7,474.84 C257.44,478.55 233.41,480.4 224.11,476.7 C221.92,475.82 219.72,474.7 217.39,473.7 C215.189194,464.747963 211.859161,456.112056 207.48,448 L314.07,448.5 L323.73,468.41 L324.11,469.29 Z" id="Shape" fill="#000000" fill-rule="nonzero" opacity="0.1"></path>
            <path d="M324.11,467.44 C324.11,467.44 315.78,469.29 299.11,465.59 C282.44,461.89 275.96,469.29 266.7,473 C257.44,476.71 233.36,478.56 224.1,474.85 C214.84,471.14 205.58,463.74 186.1,472.07 C166.62,480.4 151.84,478.55 151.84,478.55 C151.84,478.55 153.69,463.73 134.25,465.55 C114.81,467.37 101.84,458.14 101.84,458.14 L122.5,410.42 L128.7,396.09 L283.64,385.5 L284.38,385.5 L324.11,467.44 Z" id="Shape" fill="#EC7580" fill-rule="nonzero"></path>
            <path d="M299.11,423 C288.92,406.33 235.21,421.15 235.21,421.15 C235.21,421.15 209.28,428.56 203.72,414.67 C198.16,400.78 158.4,410 158.4,410 C158.4,410 129.55,420.82 122.57,410.44 L128.77,396.11 L283.64,385.5 L299.11,423 Z" id="Shape" fill="#000000" fill-rule="nonzero" opacity="0.1"></path>
            <path d="M254.7,313.71 C254.7,313.71 203.77,303.52 179.7,316.49 C155.63,329.46 137.11,358.16 137.11,358.16 L101.91,390.57 C101.91,390.57 115.8,397.05 122.28,408.16 C128.76,419.27 158.4,408.16 158.4,408.16 C158.4,408.16 198.22,398.9 203.78,412.79 C209.34,426.68 235.27,419.27 235.27,419.27 C235.27,419.27 288.98,404.45 299.17,421.12 L254.7,313.71 Z" id="Shape" fill="#EC7580" fill-rule="nonzero"></path>
            <path d="M313.41,76.43 C306.51,75.27 299.41,74.14 292.57,75.63 C281.29,78.08 272.69,87.23 266.36,96.87 C260.03,106.51 255.11,117.21 247.3,125.7 C242.07,131.39 235.64,135.96 230.98,142.12 C224.12,151.19 221.73,162.76 219.52,173.92 C216.28,190.3 213.03,206.92 214.46,223.59 C215.18,231.95 217.08,240.18 217.53,248.59 C218.44,265.48 213.45,282.06 208.53,298.24 C205.12,309.42 201.6,320.81 194.86,330.36 C190.39,336.69 184.66,341.99 179.2,347.48 C177.881961,348.599541 176.890443,350.053998 176.33,351.69 C175.15,356.47 180.92,359.69 185.33,361.85 C198.82,368.58 207.67,381.71 218.16,392.53 C228.65,403.35 243.66,412.64 258.09,408.3 C262.37,407.01 266.43,404.56 270.89,404.64 C273.89,404.69 276.77,405.91 279.62,406.91 C286.710106,409.399625 294.175604,410.651204 301.69,410.61 C303.350064,410.751615 305.015258,410.403975 306.48,409.61 C308.71,408.1 309.14,405.06 309.36,402.38 C310.77,385.56 312.17,368.68 311.22,351.83 C309.07,313.67 273.81,269.53 287.22,233.72 C293.05,218.1 303.71,204.66 309.61,189.07 C315.83,172.64 337.76,159.3 342.11,142.27 C342.6,140.35 343.27,138.27 344.95,137.27 C347.26,135.85 350.27,137.09 352.5,138.63 C365.12,147.33 369.23,163.69 373.82,178.31 C377.518974,190.085493 382.102007,201.564806 387.53,212.65 C390.53,218.65 396.97,225.6 402.61,221.96 C399.77,247.24 383.37,269.32 379.66,294.48 C376.04,319 384.81,344.06 381.41,368.6 C379.171684,384.399735 372.016932,399.094092 360.96,410.6 C373.437699,413.078858 386.269762,413.194187 398.79,410.94 C411.48,408.65 425.06,402.64 429.64,390.58 C434.64,377.31 426.91,363.07 422.98,349.43 C413.55,316.64 414.28,277.86 417.27,243.87 C420.35,208.92 424.97,178.32 417.14,144.12 C415.22,135.73 413.27,127.27 409.59,119.49 C401.85,103.14 385.93,91.44 368.48,87.32 C359.48,85.2 350.3,88.49 341.92,86.93 C337.7,86.14 333.92,82.1 329.82,80.46 C324.56,78.31 318.92,77.35 313.41,76.43 Z" id="Shape" fill="#000000" fill-rule="nonzero" opacity="0.1"></path>
            <path d="M429.59,388.66 C425.01,400.72 411.43,406.73 398.73,409.02 C386.209342,411.269219 373.378209,411.153898 360.9,408.68 C371.953557,397.171737 379.107749,382.47853 381.35,366.68 C384.76,342.13 375.99,317.07 379.6,292.56 C383.31,267.39 399.71,245.31 402.55,220.03 C396.91,223.67 390.42,216.75 387.46,210.72 C382.033919,199.633957 377.450944,188.154791 373.75,176.38 C369.16,161.76 365.05,145.38 352.43,136.7 C350.2,135.16 347.19,133.92 344.88,135.35 C343.19,136.35 342.53,138.46 342.04,140.35 C337.7,157.35 315.76,170.71 309.55,187.14 C303.64,202.73 292.98,216.14 287.15,231.79 C273.79,267.59 309.05,311.73 311.15,349.89 C312.09,366.74 310.69,383.63 309.29,400.44 C309.06,403.13 308.63,406.17 306.4,407.68 C304.93858,408.473162 303.276812,408.820812 301.62,408.68 C294.126544,408.725118 286.681217,407.480283 279.61,405 C276.76,404 273.9,402.78 270.88,402.73 C266.42,402.66 262.36,405.11 258.08,406.39 C243.65,410.73 228.63,401.44 218.15,390.62 C207.67,379.8 198.79,366.69 185.31,360 C180.9,357.8 175.13,354.62 176.31,349.83 C176.875124,348.199172 177.866006,346.7491 179.18,345.63 C184.64,340.14 190.38,334.83 194.85,328.51 C201.59,318.96 205.1,307.57 208.52,296.39 C213.46,280.21 218.45,263.63 217.52,246.74 C217.08,238.37 215.18,230.14 214.45,221.74 C213.01,205.1 216.27,188.46 219.51,172.08 C221.71,160.92 224.1,149.35 230.97,140.28 C235.64,134.12 242.06,129.55 247.3,123.86 C255.12,115.37 260.02,104.67 266.36,95.02 C272.7,85.37 281.3,76.23 292.58,73.78 C299.41,72.29 306.52,73.43 313.42,74.58 C318.93,75.51 324.57,76.47 329.78,78.58 C333.89,80.22 337.67,84.27 341.88,85.04 C350.26,86.61 359.47,83.32 368.44,85.44 C385.89,89.55 401.81,101.25 409.55,117.6 C411.064343,120.836205 412.341052,124.178374 413.37,127.6 C414.85,132.4 415.98,137.31 417.1,142.21 C417.34,143.21 417.57,144.29 417.79,145.32 C424.64,177.88 420.22,201.59 417.23,235.46 C414.24,269.33 413.51,314.71 422.93,347.46 C426.86,361.14 434.63,375.39 429.59,388.66 Z" id="Shape" fill="#865A61" fill-rule="nonzero"></path>
            <path d="M322.77,447.53 C322.77,447.53 330.18,459.53 330.18,467.9 C330.18,467.9 335.74,447.53 340.37,447.53" id="Shape" fill="#000000" fill-rule="nonzero" opacity="0.05"></path>
            <rect id="Rectangle-path" fill="#54576B" fill-rule="nonzero" x="254.24" y="506.79" width="12.96" height="124.09" rx="5.4"></rect>
            <rect id="Rectangle-path" fill="#54576B" fill-rule="nonzero" x="216.27" y="614.21" width="88.9" height="16.67" rx="6.95"></rect>
            <rect id="Rectangle-path" fill="#000000" fill-rule="nonzero" opacity="0.1" x="254.24" y="506.79" width="12.96" height="124.09" rx="5.4"></rect>
            <rect id="Rectangle-path" fill="#000000" fill-rule="nonzero" opacity="0.1" x="216.27" y="614.21" width="88.9" height="16.67" rx="6.95"></rect>
            <rect id="Rectangle-path" fill="#54576B" fill-rule="nonzero" x="218.12" y="614.21" width="88.9" height="16.67" rx="6.95"></rect>
            <circle id="Oval" fill="#000000" fill-rule="nonzero" opacity="0.1" cx="262.57" cy="518.83" r="3.7"></circle>
            <circle id="Oval" fill="#000000" fill-rule="nonzero" opacity="0.2" cx="436.2" cy="609.12" r="1.39"></circle>
            <path d="M383.76,637.08 C378.231977,637.11469 372.765856,635.91556 367.76,633.57 C349.1,624.79 339.9,625.9 325.98,627.57 C312.934656,629.367829 299.741382,629.846914 286.6,629 C279.17814,628.655236 272.307717,624.981212 267.9,619 C247.26,592.2 261.07,521.64 261.67,518.65 C261.798567,518.179359 262.268976,517.888077 262.747588,517.982748 C263.226201,518.077419 263.550292,518.525854 263.49,519.01 C263.35,519.73 249.24,591.73 269.37,617.86 C273.452964,623.421512 279.828424,626.842581 286.72,627.17 C299.735026,628.004904 312.801067,627.525816 325.72,625.74 C339.96,624.02 349.37,622.88 368.51,631.89 C399.04,646.26 434.82,609.71 435.17,609.34 C435.534644,609.024757 436.079715,609.040368 436.425718,609.375965 C436.771721,609.711562 436.803965,610.255903 436.5,610.63 C436.23,610.95 410.64,637.08 383.76,637.08 Z" id="Shape" fill="#DFE6F5" fill-rule="nonzero"></path>
            <path d="M417.78,145.31 C402.49,117.76 371.45,98.87 335.78,98.87 C284.98,98.87 243.64,137.09 243.64,184.07 L237.11,184.07 C237.11,133.52 281.36,92.39 335.73,92.39 C367.21,92.39 395.29,106.17 413.36,127.59 C414.84,132.39 415.97,137.3 417.09,142.2 C417.34,143.25 417.57,144.28 417.78,145.31 Z" id="Shape" fill="#535461" fill-rule="nonzero"></path>
            <path d="M250.89,157 L259.42,157 L259.42,216 L250.89,216 C237.325887,216 226.33,205.004113 226.33,191.44 L226.33,181.62 C226.314062,175.095893 228.894588,168.833536 233.50221,164.214658 C238.109832,159.595779 244.365874,156.999981 250.89,157 Z" id="Shape" fill="#DFE6F5" fill-rule="nonzero"></path>
            <rect id="Rectangle-path" fill="#535461" fill-rule="nonzero" x="252.18" y="157.05" width="14.48" height="58.95" rx="6.03"></rect>
            <path d="M801.83,580.91 C801.83,580.91 785.95,575.53 778.31,589.52 C774.213396,597.229057 774.341649,606.497251 778.65,614.09 C783.65,623.16 794.01,634.94 813.65,633.89 C830.27,633 835.8,620.32 837.3,608.52 C838.469407,599.523357 834.875758,590.566013 827.812615,584.872234 C820.749473,579.178456 811.233482,577.567787 802.69,580.62 L801.83,580.91 Z" id="Shape" fill="#1A61FF" fill-rule="nonzero"></path>
            <path d="M782.01,615.35 C777.701649,607.757251 777.573396,598.489057 781.67,590.78 C789.31,576.78 805.19,582.17 805.19,582.17 L806,581.88 C812.054926,579.689269 818.709774,579.839056 824.66,582.3 C818.011047,578.34115 809.937838,577.570526 802.66,580.2 L801.85,580.49 C801.85,580.49 785.97,575.11 778.33,589.1 C774.233396,596.809057 774.361649,606.077251 778.67,613.67 C781.98,619.67 787.59,626.78 796.67,630.67 C790.473578,627.000956 785.402797,621.701886 782.01,615.35 Z" id="Shape" fill="#FFFFFF" fill-rule="nonzero" opacity="0.1"></path>
            <path d="M793.63,587.64 C793.63,587.64 799.52,592.27 813.81,587.64" id="Shape" fill="#000000" fill-rule="nonzero" opacity="0.2"></path>
            <path d="M792.37,554 C792.37,554 802.46,581.33 801.62,588.48 L809.62,587.64 C809.62,587.64 796.11,563.67 799.52,554 L792.37,554 Z" id="Shape" fill="#1A61FF" fill-rule="nonzero"></path>
            <path d="M792.37,554 C792.37,554 802.46,581.33 801.62,588.48 L809.62,587.64 C809.62,587.64 796.11,563.67 799.52,554 L792.37,554 Z" id="Shape" fill="#000000" fill-rule="nonzero" opacity="0.2"></path>
            <path d="M833.56,556.28 C833.56,556.28 817.68,548.16 810.56,554.87 C803.44,561.58 802.36,578.73 802.36,578.73 C802.36,578.73 828.27,582.3 833.56,556.28 Z" id="Shape" fill="#1A61FF" fill-rule="nonzero"></path>
            <path d="M833.56,556.28 C833.56,556.28 817.68,548.16 810.56,554.87 C803.44,561.58 802.36,578.73 802.36,578.73 C802.36,578.73 828.27,582.3 833.56,556.28 Z" id="Shape" fill="#FFFFFF" fill-rule="nonzero" opacity="0.1"></path>
            <path d="M802.37,578.73 C802.37,578.73 806.54,558.82 833.56,556.28" id="Shape" stroke="#1A61FF"></path>
        </g>
    </g>
</svg>