<?xml version="1.0" encoding="UTF-8"?>
<svg width="1038px" height="773px" viewBox="0 0 1038 773" version="1.1" xmlns="http://www.w3.org/2000/svg" xmlns:xlink="http://www.w3.org/1999/xlink">
    <!-- Generator: Sketch 49.3 (51167) - http://www.bohemiancoding.com/sketch -->
    <title>undraw_time_management_30iu</title>
    <desc>Created with Sketch.</desc>
    <defs>
        <linearGradient x1="74844%" y1="59628%" x2="74844%" y2="17926%" id="linearGradient-1">
            <stop stop-color="#808080" stop-opacity="0.25" offset="0%"></stop>
            <stop stop-color="#808080" stop-opacity="0.12" offset="54%"></stop>
            <stop stop-color="#808080" stop-opacity="0.1" offset="100%"></stop>
        </linearGradient>
    </defs>
    <g id="Page-1" stroke="none" stroke-width="1" fill="none" fill-rule="evenodd">
        <g id="undraw_time_management_30iu">
            <path d="M104.4,77.33 C97.94,80.01 91.31,83.45 87.76,89.48 C84,95.85 84.45,103.76 85.15,111.13 C91.25,175.05 107.32,243.03 79.57,300.93 C66.1,329.02 43.57,351.53 25.65,377.04 C7.73,402.55 -5.8,434.4 2.52,464.41 C12.68,501.08 50.6,521.41 76.16,549.63 C92.89,568.08 104.62,590.5 120.23,609.91 C135.84,629.32 157.23,646.42 182.15,647.56 C217.99,649.21 247.15,618.26 282.29,611.09 C318.29,603.75 354.54,622.43 383.73,644.79 C412.92,667.15 439.47,694.24 473.48,708.2 C511.04,723.63 553.38,721.27 592.92,730.54 C628.92,738.99 662.06,756.96 697.8,766.54 C733.54,776.12 775.43,775.54 803.12,751.07 C839.21,719.07 836.37,662.07 859.42,619.74 C880.83,580.41 922.74,556.93 950.95,522.16 C1001.71,459.58 1000.05,363.93 956.95,295.87 C913.85,227.81 835.78,186.6 755.95,175.87 C719.95,171.04 682.88,171.7 648.27,160.71 C555.63,131.31 500.5,25.97 405.92,4.05 C345.8,-9.86 287.33,14.23 236.12,43.88 C191.67,69.62 150.66,58.14 104.4,77.33 Z" id="Shape" fill="#1A61FF" fill-rule="nonzero" opacity="0.1"></path>
            <path d="M194.68,283.83 C194.68,283.83 160.55,316.04 123.92,317 C108.538055,317.306226 93.6705601,322.59424 81.55,332.07 C75.8208561,336.599054 70.5186967,341.643469 65.71,347.14" id="Shape" stroke="#535461" stroke-width="2"></path>
            <path d="M42.61,347.93 C47.53,345.43 66.31,347.09 66.31,347.09 C66.31,347.09 56.57,363.24 51.65,365.74 C48.4386462,367.643701 44.4342824,367.600094 41.2651476,365.62691 C38.0960128,363.653725 36.289865,360.079559 36.5811131,356.357726 C36.8723611,352.635892 39.2125033,349.38619 42.65,347.93 L42.61,347.93 Z" id="Shape" fill="#1A61FF" fill-rule="nonzero"></path>
            <path d="M62.38,319.38 C67.87,319.96 82.73,331.56 82.73,331.56 C82.73,331.56 65.73,339.82 60.29,339.25 C55.0026833,338.451158 51.2794081,333.634138 51.8387735,328.316152 C52.398139,322.998166 57.0421852,319.061252 62.38,319.38 Z" id="Shape" fill="#1A61FF" fill-rule="nonzero"></path>
            <path d="M109.26,296.37 C113.7,299.64 120.68,317.16 120.68,317.16 C120.68,317.16 101.87,315.73 97.43,312.47 C93.2727569,309.111205 92.4914227,303.077184 95.6560506,298.770294 C98.8206785,294.463404 104.812524,293.406197 109.26,296.37 Z" id="Shape" fill="#1A61FF" fill-rule="nonzero"></path>
            <path d="M148.65,286.96 C153.58,289.43 163.42,305.52 163.42,305.52 C163.42,305.52 144.64,307.29 139.71,304.82 C136.321258,303.340263 134.025669,300.111293 133.74135,296.424511 C133.457032,292.73773 135.230396,289.194969 138.352189,287.21315 C141.473981,285.231332 145.4346,285.133968 148.65,286.96 Z" id="Shape" fill="#1A61FF" fill-rule="nonzero"></path>
            <path d="M93.18,349.77 C94.82,344.5 90.02,326.26 90.02,326.26 C90.02,326.26 75.74,338.58 74.1,343.85 C72.8411615,347.314774 73.5906168,351.191137 76.0502169,353.936988 C78.509817,356.68284 82.2806283,357.852819 85.8625423,356.981483 C89.4444564,356.110148 92.2565066,353.338823 93.18,349.77 Z" id="Shape" fill="#1A61FF" fill-rule="nonzero"></path>
            <path d="M139.11,338.14 C139.11,332.62 129.06,316.66 129.06,316.66 C129.06,316.66 119.12,332.66 119.13,338.2 C119.146569,343.722847 123.637153,348.186568 129.16,348.17 C134.682847,348.153431 139.146568,343.662847 139.13,338.14 L139.11,338.14 Z" id="Shape" fill="#1A61FF" fill-rule="nonzero"></path>
            <path d="M182.2,320.78 C183.12,315.34 175.92,297.91 175.92,297.91 C175.92,297.91 163.41,312.03 162.5,317.47 C161.861645,322.771409 165.500986,327.639059 170.766438,328.526434 C176.031891,329.41381 181.065573,326.007807 182.2,320.79 L182.2,320.78 Z" id="Shape" fill="#1A61FF" fill-rule="nonzero"></path>
            <path d="M239.03,198.53 C239.03,198.53 197.92,175.95 185.7,141.36 C180.679607,126.814756 171.07542,114.291064 158.33,105.67 C152.247849,101.62284 145.807581,98.1416138 139.09,95.27" id="Shape" stroke="#535461" stroke-width="2"></path>
            <path d="M131.29,73.52 C135.18,77.43 139.37,95.82 139.37,95.82 C139.37,95.82 121.01,91.52 117.12,87.6 C113.552054,83.6377506 113.720396,77.573028 117.502644,73.8148025 C121.284893,70.0565771 127.350565,69.9268803 131.29,73.52 Z" id="Shape" fill="#1A61FF" fill-rule="nonzero"></path>
            <path d="M164.54,83.55 C165.68,88.95 159.21,106.66 159.21,106.66 C159.21,106.66 146.14,93.07 145,87.66 C144.078334,84.0962969 145.188992,80.3143746 147.891255,77.81493 C150.593517,75.3154853 154.450437,74.5026716 157.931557,75.6990196 C161.412678,76.8953677 163.955111,79.9074314 164.55,83.54 L164.54,83.55 Z" id="Shape" fill="#1A61FF" fill-rule="nonzero"></path>
            <path d="M200.84,121.14 C199.1,126.37 184.57,138.4 184.57,138.4 C184.57,138.4 180.15,120.07 181.89,114.83 C183.632458,109.583295 189.298295,106.742542 194.545,108.485 C199.791705,110.227459 202.632458,115.893295 200.89,121.14 L200.84,121.14 Z" id="Shape" fill="#1A61FF" fill-rule="nonzero"></path>
            <path d="M221.92,155.69 C221.09,161.14 208.8,175.45 208.8,175.45 C208.8,175.45 201.34,158.13 202.17,152.68 C202.546707,149.011028 204.912395,145.847274 208.325106,144.448465 C211.737818,143.049656 215.643437,143.642915 218.486845,145.99202 C221.330253,148.341126 222.649771,152.064658 221.92,155.68 L221.92,155.69 Z" id="Shape" fill="#1A61FF" fill-rule="nonzero"></path>
            <path d="M145.08,122.21 C150.6,122.15 166.48,111.97 166.48,111.97 C166.48,111.97 150.37,102.17 144.85,102.23 C139.327153,102.293513 134.901487,106.822153 134.965,112.345 C135.028513,117.867847 139.557153,122.293513 145.08,122.23 L145.08,122.21 Z" id="Shape" fill="#1A61FF" fill-rule="nonzero"></path>
            <path d="M170.24,162.35 C175.48,160.64 187.59,146.18 187.59,146.18 C187.59,146.18 169.28,141.65 164.04,143.36 C160.518647,144.364945 157.828221,147.21425 157.026745,150.787411 C156.225269,154.360571 157.440946,158.086033 160.195704,160.498738 C162.950462,162.911443 166.803658,163.625461 170.24,162.36 L170.24,162.35 Z" id="Shape" fill="#1A61FF" fill-rule="nonzero"></path>
            <path d="M200.04,198.01 C205.5,197.21 219.88,185.01 219.88,185.01 C219.88,185.01 202.6,177.45 197.15,178.25 C193.494239,178.626801 190.339747,180.978499 188.934813,184.374487 C187.52988,187.770474 188.100927,191.663444 190.421982,194.512877 C192.743037,197.362311 196.440032,198.708986 200.05,198.02 L200.04,198.01 Z" id="Shape" fill="#1A61FF" fill-rule="nonzero"></path>
            <circle id="Oval" fill="#C2D4FD" fill-rule="nonzero" cx="521.94" cy="384.41" r="356"></circle>
            <circle id="Oval" fill="#FFFFFF" fill-rule="nonzero" cx="521.94" cy="384.41" r="283"></circle>
            <rect id="Rectangle-path" fill="#535461" fill-rule="nonzero" opacity="0.3" x="513.94" y="151.41" width="16" height="250"></rect>
            <g id="Group" opacity="0.1" transform="translate(370.000000, 303.000000)" fill="#000000" fill-rule="nonzero">
                <rect id="Rectangle-path" x="168.94" y="75.41" width="226" height="20"></rect>
                <rect id="Rectangle-path" transform="translate(75.843162, 46.676740) rotate(-62.360000) translate(-75.843162, -46.676740) " x="65.8431624" y="-33.5832599" width="20" height="160.52"></rect>
                <circle id="Oval" cx="151.94" cy="85.41" r="30"></circle>
            </g>
            <rect id="Rectangle-path" fill="#535461" fill-rule="nonzero" x="538.94" y="374.41" width="226" height="20"></rect>
            <rect id="Rectangle-path" fill="#535461" fill-rule="nonzero" transform="translate(445.908918, 345.699643) rotate(27.640000) translate(-445.908918, -345.699643) " x="365.648918" y="335.699643" width="160.52" height="20"></rect>
            <circle id="Oval" fill="#535461" fill-rule="nonzero" cx="521.94" cy="384.41" r="30"></circle>
            <path d="M783.42,176.23 C780.06,173 751.78,194.23 751.78,194.23 C751.78,194.23 741.71,196.07 744.11,202.98 C746.51,209.89 733.56,248.59 733.56,248.59 L728.29,241.22 C728.8,232.57 726.42,226.44 724.1,222.62 C723.91,222.31 723.72,222.01 723.53,221.73 L724.45,221.41 C724.1,216.69 716.55,209.5 712.54,205.98 C712.54,205.47 712.54,204.98 712.54,204.46 C712.79,198.82 715.05,192.87 712.54,187.76 C709.7,181.93 701.39,179 700.69,172.6 C700.27,168.78 702.85,165.33 703.99,161.65 C706.71,152.85 701.06,143.87 695.66,136.29 C693.830943,133.448064 691.605106,130.882122 689.05,128.67 C686.615752,126.890537 683.94278,125.463157 681.11,124.43 C673.2,121.23 665.11,119.62 656.95,117.43 C649.12,115.35 641.9,114.36 633.95,116.97 C632.063397,117.478691 630.340765,118.467481 628.95,119.84 C627.06,121.96 626.81,124.98 625.57,127.51 C623.57,131.58 619.26,134.01 615.45,136.62 C611.64,139.23 607.82,142.81 607.8,147.31 C607.8,153.7 615.1,157.72 617.54,163.67 C619.82,169.21 617.54,175.38 616.27,181.22 C615.739338,183.107504 615.687783,185.097551 616.12,187.01 C616.623515,188.435297 617.382584,189.756892 618.36,190.91 C619.87,192.91 621.49,194.77 623.1,196.67 L622.36,196.96 C608.94,195.58 600.31,212.62 600.31,212.62 C600.93,212.75 601.52,212.9 602.1,213.07 L601.53,213.81 C597.47499,219.076404 594.160824,224.87367 591.68,231.04 L580.68,245.78 C580.68,245.78 578.28,208.92 584.04,200.63 C589.8,192.34 578.77,187.27 578.77,187.27 C578.77,187.27 554.77,160.55 551.44,162.85 C548.11,165.15 559.59,194.18 569.66,198.79 C569.66,198.79 570.66,208 568.66,213.99 C567.45,217.78 560.99,257.76 560.99,257.76 C560.99,257.76 555.24,291.39 581.61,274.76 C598.74,263.98 609.81,245.42 615.45,233.76 C615.843333,232.94 616.213333,232.156667 616.56,231.41 C616.820648,232.646685 616.997716,233.89952 617.09,235.16 L618.09,273.69 C618.343379,283.220157 616.262985,292.667756 612.03,301.21 L600.28,325.04 L601.59,325.44 L600.8,326.58 C593.06,337.97 579.9,363.58 606.99,376.63 L642.99,381.24 L641.07,390.45 C641.07,390.45 626.21,418.55 621.89,437.9 C619.206812,449.749416 615.016005,461.206082 609.42,471.99 L610.53,472.58 C610.3,472.84 610.06,473.11 609.83,473.39 C607.647063,475.845082 606.204658,478.868584 605.67,482.11 L600.79,489.03 C600.79,489.03 598.87,517.59 602.71,524.51 C604.81,528.29 611.78,530.69 617.71,532.09 C626.51,534.18 633.61,525.09 628.94,517.6 L628.88,517.5 L628.79,517.5 C627.79,512.85 624.73,498.42 625.73,492.94 C626.01,491.38 626.27,489.83 626.4,488.25 C626.640678,486.173764 627.271763,484.161757 628.26,482.32 C628.42,482.01 628.59,481.71 628.76,481.41 L629.28,481.63 C630.89,482.32 632.48,482.97 633.99,483.54 C631.65,485.67 629.99,490.08 631.99,499.15 C631.99,499.15 632.18,521.84 633.91,525.41 C635.64,528.98 655,533.7 658.36,530.02 C661.72,526.34 656.2,513.66 656.2,513.66 L656.03,513.78 C654.92,506.43 653.55,493.27 656.92,488.09 C658.28,486 659.6,483.84 660.78,481.82 L661.51,480.57 C667.77,483.69 674.39,486.04 678.01,484.41 C678.01,484.41 693.83,447.55 692.87,442.95 C691.91,438.35 717.32,386.28 717.32,386.28 C717.32,386.28 738.89,362.28 712.53,345.74 C704.16,340.47 698.06,336.93 693.63,334.54 L689.92,315.14 C688.012552,304.969434 688.353869,294.504657 690.92,284.48 L694.92,269.22 L695.25,267.92 C695.25,267.92 705.32,247.19 704.84,237.51 C704.802872,236.758059 704.88729,236.005053 705.09,235.28 C705.2,235.74 705.32,236.22 705.45,236.72 C708.095627,246.781009 711.581199,256.602161 715.87,266.08 C723.52,283.34 734.87,281.97 741.09,279.52 C743.794572,278.473251 745.790483,276.135292 746.4,273.3 C748.64,262.56 754.79,232.47 755.18,224.16 C755.528645,217.662001 756.330596,211.196277 757.58,204.81 C773.36,195.58 786.78,179.46 783.42,176.23 Z" id="Shape" fill="url(#linearGradient-1)" fill-rule="nonzero"></path>
            <path d="M666.03,471.45 C666.03,471.45 663.92,475.68 661.03,480.76 C659.9,482.76 658.64,484.91 657.35,486.98 C652.78,494.29 657.35,517.58 657.35,517.58 L647.35,518.95 L637.35,513.95 L635.52,497.05 L635.52,484.69 L646.92,471.94 L651.92,466.42 L666.03,471.45 Z" id="Shape" fill="#F8BDC5" fill-rule="nonzero"></path>
            <g id="Group" opacity="0.1" transform="translate(646.000000, 466.000000)" fill="#000000" fill-rule="nonzero">
                <path d="M20.03,5.45 C20.03,5.45 17.92,9.68 15.03,14.76 C10.615071,12.4006799 6.34724184,9.77586481 2.25,6.9 L1.37,6.28 L0.9,5.94 L5.9,0.42 L20.03,5.45 Z" id="Shape"></path>
            </g>
            <path d="M714.92,386.03 C714.92,386.03 690.71,437.64 691.63,442.21 C692.55,446.78 677.47,483.32 677.47,483.32 C674.03,484.94 667.71,482.61 661.75,479.52 C657.255513,477.124535 652.913853,474.452745 648.75,471.52 L647.87,470.9 L647.34,470.52 L687.08,360.44 L651.92,334.65 L649.32,332.74 L633.6,321.14 L681.6,329.82 C681.6,329.82 683.27,329.61 692.1,334.55 C696.34,336.92 702.23,340.47 710.37,345.81 C735.46,362.28 714.92,386.03 714.92,386.03 Z" id="Shape" fill="#5E52AD" fill-rule="nonzero"></path>
            <g id="Group" opacity="0.03" transform="translate(633.000000, 321.000000)" fill="#000000" fill-rule="nonzero">
                <path d="M81.92,65.03 C81.92,65.03 57.71,116.64 58.63,121.21 C59.55,125.78 44.47,162.32 44.47,162.32 C41.03,163.94 34.71,161.61 28.75,158.52 C24.2555132,156.124535 19.9138529,153.452745 15.75,150.52 L14.87,149.9 L14.34,149.52 L54.08,39.44 L18.92,13.65 L16.32,11.74 L0.6,0.14 L48.6,8.82 C48.6,8.82 50.27,8.61 59.1,13.55 C63.34,15.92 69.23,19.47 77.37,24.81 C102.46,41.28 81.92,65.03 81.92,65.03 Z" id="Shape"></path>
            </g>
            <path d="M641.37,480.58 C641.37,480.58 629.49,478.75 633.61,497.94 C633.61,497.94 633.79,520.44 635.44,523.94 C637.09,527.44 655.54,532.16 658.73,528.51 C661.92,524.86 656.67,512.3 656.67,512.3 C656.67,512.3 643.2,522.12 639.54,511.61 C635.88,501.1 641.37,480.58 641.37,480.58 Z" id="Shape" fill="#5D3E53" fill-rule="nonzero"></path>
            <path d="M633.14,476.93 C631.843878,478.164219 630.789195,479.629244 630.03,481.25 C629.086299,483.085636 628.486422,485.078448 628.26,487.13 C628.14,488.69 627.89,490.24 627.63,491.78 C626.49,498.29 630.86,517.58 630.86,517.58 L613.5,520.32 L607.11,513.47 L605.74,498.4 C607.445331,493.232952 608.368865,487.840054 608.48,482.4 C608.48,478.47 610.48,474.96 612.48,472.4 C613.835869,470.691822 615.390122,469.150997 617.11,467.81 C617.11,467.81 636.8,473.73 633.14,476.93 Z" id="Shape" fill="#F8BDC5" fill-rule="nonzero"></path>
            <g id="Group" opacity="0.1" transform="translate(612.000000, 467.000000)" fill="#000000" fill-rule="nonzero">
                <path d="M21.14,9.93 C19.8438778,11.1642185 18.7891953,12.6292438 18.03,14.25 C10.92,11.04 3.45,6.99 0.73,5.49 L0.52,5.38 C1.87586884,3.67182196 3.4301219,2.13099657 5.15,0.79 C5.15,0.79 24.8,6.73 21.14,9.93 Z" id="Shape"></path>
            </g>
            <path d="M689.33,372.33 C689.33,372.33 677.92,393.8 670.6,411.61 C665.8,423.31 655.88,451.17 649.6,468.91 L648.68,471.53 C645.92,479.38 644.08,484.69 644.08,484.69 C642.863264,484.698065 641.652499,484.519317 640.49,484.16 C639.41,483.87 638.2,483.48 636.91,483 L635.46,482.45 C634.02,481.89 632.46,481.24 630.97,480.56 C623.71,477.32 615.97,473.1 613.16,471.56 L612.1,470.97 C617.459666,460.231764 621.460483,448.867561 624.01,437.14 C628.12,417.96 642.28,390.14 642.28,390.14 L644.11,381 L609.85,376.43 C584.04,363.53 596.58,338.1 603.95,326.81 C605.206723,324.850224 606.565252,322.957631 608.02,321.14 L635.43,327.14 C635.43,327.14 639.75,328.52 649.35,332.77 L653.76,334.77 C659.14,337.24 665.76,340.42 673.76,344.5 C700.74,358.14 689.33,372.33 689.33,372.33 Z" id="Shape" fill="#5E52AD" fill-rule="nonzero"></path>
            <path d="M630.69,516.21 C632.688885,519.577519 632.466784,523.816671 630.126941,526.956871 C627.787098,530.097072 623.788536,531.522287 619.99,530.57 C614.38,529.18 607.73,526.8 605.73,523.05 C602.08,516.2 603.9,487.88 603.9,487.88 L608.7,480.8 C608.7,480.8 606.19,512.09 612.13,514.8 C618.07,517.51 630.63,516.07 630.63,516.07 L630.69,516.21 Z" id="Shape" fill="#5D3E53" fill-rule="nonzero"></path>
            <path d="M635.55,119 C633.725627,119.507652 632.069036,120.491253 630.75,121.85 C628.95,123.95 628.75,126.95 627.53,129.46 C625.63,133.46 621.53,135.91 617.89,138.46 C614.25,141.01 610.62,144.6 610.6,149.06 C610.6,155.4 617.6,159.38 619.88,165.27 C622.05,170.77 619.88,176.88 618.67,182.67 C618.16542,184.54467 618.117413,186.51296 618.53,188.41 C619.007071,189.817194 619.731799,191.127798 620.67,192.28 C625.08,198.28 630.56,203.6 633.51,210.43 C635.75,215.62 636.37,221.35 636.96,226.98 C637.81,235.08 638.66,243.33 637.12,251.33 C636.970176,251.808547 636.970176,252.321453 637.12,252.8 C637.382301,253.258872 637.795879,253.612358 638.29,253.8 C644.169996,256.656774 650.960894,256.991352 657.09323,254.726408 C663.225566,252.461464 668.168624,247.793015 670.78,241.8 C672.78,237.27 673.55,231.8 677.51,228.86 C677.972147,228.477737 678.527936,228.225733 679.12,228.13 C680.053764,228.155759 680.958781,228.458592 681.72,229 C686.86,231.78 693.09,231.86 698.82,230.72 C702.28,230.03 705.82,228.8 708.11,226.1 C712.62,220.74 710.11,212.73 710.41,205.74 C710.65,200.15 712.8,194.25 710.41,189.19 C707.71,183.41 699.78,180.51 699.12,174.19 C698.72,170.41 701.18,166.98 702.27,163.34 C704.86,154.61 699.48,145.71 694.34,138.2 C692.610895,135.398562 690.493132,132.856573 688.05,130.65 C685.744622,128.894441 683.198505,127.479931 680.49,126.45 C672.96,123.28 665.28,121.68 657.49,119.52 C650.03,117.39 643.16,116.4 635.55,119 Z" id="Shape" fill="#85555C" fill-rule="nonzero"></path>
            <path d="M673.8,249.46 L647.3,249.46 L647.3,206.52 C648.087293,202.396 648.548719,198.216423 648.68,194.02 C648.68,192.61 648.68,191.17 648.68,189.72 C648.43,184.6 647.37,179.49 644.59,176.37 C637.28,168.15 668.34,169.52 668.34,169.52 C669.293104,173.294567 670.529956,176.991751 672.04,180.58 C674.29021,186.178969 677.283748,191.449613 680.94,196.25 C684.156856,200.521439 688.278624,204.028528 693.01,206.52 C711.25,215.66 673.8,249.46 673.8,249.46 Z" id="Shape" fill="#F8BDC5" fill-rule="nonzero"></path>
            <g id="Group" opacity="0.1" transform="translate(643.000000, 169.000000)" fill="#000000" fill-rule="nonzero">
                <path d="M29.01,11.58 C23.5262316,18.7301321 14.5300372,22.2500472 5.65,20.72 C5.4,15.6 4.34,10.49 1.56,7.37 C-5.75,-0.85 25.31,0.52 25.31,0.52 C26.2631042,4.29456719 27.4999559,7.99175088 29.01,11.58 Z" id="Shape"></path>
            </g>
            <circle id="Oval" fill="#F8BDC5" fill-rule="nonzero" cx="652.78" cy="164.51" r="24.21"></circle>
            <path d="M753.27,206.07 C752.081329,212.405059 751.319614,218.812821 750.99,225.25 C750.62,233.48 744.76,263.32 742.62,273.97 C742.071779,276.743677 740.172679,279.059379 737.56,280.14 C731.62,282.57 720.82,283.93 713.56,266.82 C709.466645,257.405215 706.1457,247.67314 703.63,237.72 C702.740011,234.374382 702.071891,230.973652 701.63,227.54 L717.63,218.86 C719.135975,220.268955 720.411493,221.905534 721.41,223.71 C723.62,227.5 725.89,233.58 725.41,242.15 L730.41,249.46 C730.41,249.46 742.74,211.09 740.41,204.24 C738.08,197.39 747.72,195.56 747.72,195.56 C747.72,195.56 774.67,174.56 777.87,177.75 C781.07,180.94 768.34,196.93 753.27,206.07 Z" id="Shape" fill="#F8BDC5" fill-rule="nonzero"></path>
            <path d="M622.18,224.34 C620.931637,227.912926 619.496323,231.417762 617.88,234.84 C612.5,246.41 601.96,264.84 585.64,275.5 C560.52,291.94 566,258.6 566,258.6 C566,258.6 572.15,218.96 573.31,215.21 C575.14,209.27 574.22,200.14 574.22,200.14 C564.63,195.57 553.67,166.8 556.86,164.51 C560.05,162.22 582.86,188.72 582.86,188.72 C582.86,188.72 593.37,193.72 587.86,201.97 C582.35,210.22 584.66,246.73 584.66,246.73 L595.23,232.14 C597.581356,226.052019 600.739577,220.307353 604.62,215.06 C606.62,212.33 608.02,210.68 608.02,210.68 L622.18,224.34 Z" id="Shape" fill="#F8BDC5" fill-rule="nonzero"></path>
            <g id="Group" opacity="0.1" transform="translate(701.000000, 218.000000)" fill="#000000" fill-rule="nonzero">
                <path d="M20.42,5.71 C17.06,6.95 4.05,12.2 2.61,19.71 C1.72001124,16.3643824 1.05189142,12.9636525 0.61,9.53 L16.61,0.85 C18.1274715,2.25974689 19.4132494,3.89987312 20.42,5.71 Z" id="Shape"></path>
            </g>
            <g id="Group" opacity="0.1" transform="translate(604.000000, 210.000000)" fill="#000000" fill-rule="nonzero">
                <path d="M18.18,14.34 C16.9316369,17.9129265 15.4963233,21.417762 13.88,24.84 C13.26,20.32 10.71,8.76 0.62,5.03 C2.62,2.3 4.02,0.65 4.02,0.65 L18.18,14.34 Z" id="Shape"></path>
            </g>
            <g id="Group" opacity="0.1" transform="translate(647.000000, 194.000000)" fill="#000000" fill-rule="nonzero">
                <path d="M26.8,55.46 L0.3,55.46 L0.3,12.52 C1.0872933,8.39600047 1.54871862,4.21642325 1.68,0.02 C7.13,5.28 5.78,13.43 5.78,13.43 L19.94,45.43 L26.8,17.14 L24.52,13.49 L33.92,2.31 C37.1368557,6.58143945 41.2586237,10.0885279 45.99,12.58 C64.25,21.66 26.8,55.46 26.8,55.46 Z" id="Shape"></path>
            </g>
            <g id="Group" opacity="0.1" transform="translate(603.000000, 321.000000)" fill="#000000" fill-rule="nonzero">
                <path d="M89.52,16.14 C89.52,16.14 68.76,14.49 50.75,13.71 L48.94,13.63 C46.38,13.53 43.94,13.45 41.55,13.39 C24.07,12.97 4.3,6.86 0.94,5.79 C2.20055338,3.83681404 3.56241406,1.95090404 5.02,0.14 L32.43,6.14 C32.43,6.14 36.75,7.52 46.35,11.77 L30.6,0.14 L78.6,8.82 C78.6,8.82 80.27,8.61 89.1,13.55 L89.52,16.14 Z" id="Shape"></path>
            </g>
            <path d="M673.8,212.92 L671.52,209.27 L681.66,197.14 C681.66,197.14 702.57,207.39 708.05,205.14 C708.05,205.14 721.3,216.14 721.75,222.5 C721.75,222.5 702.57,228.89 703.02,238.5 C703.47,248.11 693.92,268.64 693.92,268.64 L689.92,285.06 C687.458529,295.011085 687.117819,305.368663 688.92,315.46 L692.57,335.79 C692.57,335.79 663.79,333.51 644.57,333.05 C625.35,332.59 603.46,325.29 603.46,325.29 L614.67,301.7 C618.712363,293.186791 620.692504,283.841073 620.45,274.42 L619.45,236.23 C619.45,236.23 618.54,217.05 603.45,213.85 C603.45,213.85 611.67,196.95 624.45,198.32 C624.45,198.32 643.07,190.55 648.6,195.8 C654.13,201.05 652.77,209.28 652.77,209.28 L666.93,241.28 L673.8,212.92 Z" id="Shape" fill="#ED677B" fill-rule="nonzero"></path>
            <g id="Group" opacity="0.1" transform="translate(628.000000, 129.000000)" fill="#000000" fill-rule="nonzero">
                <path d="M7.31,30.52 C10.98,30.52 13.86,26.63 17.53,26.83 C19.43,26.93 21.06,28.14 22.63,29.23 C28.562533,33.3381317 35.1641795,36.3834838 42.14,38.23 C44.85,38.95 47.72,39.49 50.44,38.83 C53.16,38.17 55.71,36.03 56.02,33.24 C56.0961413,32.0103485 55.933133,30.7775987 55.54,29.61 C52.4608025,18.8823556 45.4941171,9.6873292 36,3.82 C32.2,1.49 27.56,-0.29 23.35,1.17 C19.55,2.48 17.1,6.04 14.35,8.97 C12.2775066,11.1639012 9.92373142,13.0738217 7.35,14.65 C5.35,15.86 2.35,16.65 1.2,18.87 C-0.97,23.01 2.44,30.48 7.31,30.52 Z" id="Shape"></path>
            </g>
            <path d="M635.31,158.61 C638.98,158.61 641.86,154.72 645.53,154.92 C647.43,155.02 649.06,156.23 650.63,157.32 C656.562533,161.428132 663.164179,164.473484 670.14,166.32 C672.85,167.04 675.72,167.58 678.44,166.92 C681.16,166.26 683.71,164.12 684.02,161.33 C684.096141,160.100349 683.933133,158.867599 683.54,157.7 C680.460802,146.972356 673.494117,137.777329 664,131.91 C660.2,129.58 655.56,127.8 651.35,129.26 C647.55,130.57 645.1,134.13 642.35,137.06 C640.277507,139.253901 637.923731,141.163822 635.35,142.74 C633.35,143.95 630.35,144.74 629.2,146.96 C627.03,151.14 630.44,158.56 635.31,158.61 Z" id="Shape" fill="#85555C" fill-rule="nonzero"></path>
            <path d="M624.24,262.93 C624.24,262.93 646.62,271.15 661.24,264.76 L668.55,265.22 C668.55,265.22 680.7,273.74 693.55,269.93" id="Shape" fill="#000000" fill-rule="nonzero" opacity="0.05"></path>
            <path d="M730.21,249.23 C730.21,249.23 726.56,257.91 728.38,260.65" id="Shape" fill="#000000" fill-rule="nonzero" opacity="0.05"></path>
            <path d="M584.5,246.49 C584.5,246.49 586.33,255.17 584.5,257.91" id="Shape" fill="#000000" fill-rule="nonzero" opacity="0.05"></path>
            <path d="M963.32,444.28 C963.32,444.28 921.48,486.12 945.1,548.2 C968.72,610.28 904.62,713.52 904.62,713.52 C904.62,713.52 905.31,713.42 906.62,713.2 C992.55,698.03 1035.24,599.76 987.46,526.75 C969.65,499.6 955.07,467.76 963.32,444.28 Z" id="Shape" fill="#1A61FF" fill-rule="nonzero"></path>
            <path d="M963.32,444.98 C963.32,444.98 921.48,486.82 945.1,548.9 C968.72,610.98 904.62,714.21 904.62,714.21 C904.62,714.21 905.31,714.11 906.62,713.89 C992.55,698.72 1035.24,600.45 987.46,527.44 C969.65,500.3 955.07,468.46 963.32,444.98 Z" id="Shape" fill="#000000" fill-rule="nonzero" opacity="0.1"></path>
            <path d="M963.32,444.28 C963.32,444.28 939.7,495.56 963.32,537.4 C986.94,579.24 967.32,696.65 904.61,713.52" id="Shape" stroke="#535461"></path>
            <path d="M1037.84,613.5 C1037.84,613.5 990.1,605.9 985.75,648.68 C981.4,691.46 893.92,697.39 893.92,697.39 L895.56,698.48 C967.76,745.88 1036.79,728.67 1026.38,665.73 C1022.54,642.34 1022.86,618.84 1037.84,613.5 Z" id="Shape" fill="#1A61FF" fill-rule="nonzero"></path>
            <path d="M1037.84,613.5 C1037.84,613.5 1000.78,621.63 1003.84,655.33 C1006.9,689.03 948.84,729.42 893.96,697.4" id="Shape" stroke="#535461"></path>
            <path d="M995.84,698.95 C995.84,698.95 958.24,691.43 948.21,681.4 C938.18,671.37 893.06,653.83 888.05,666.4 C883.04,678.97 820.37,721.55 862.98,729.07 C905.59,736.59 963.25,739.07 975.78,734.07 C988.31,729.07 995.84,698.95 995.84,698.95 Z" id="Shape" fill="#A8A8A8" fill-rule="nonzero"></path>
            <path d="M862.98,724.38 C905.6,731.9 963.25,734.38 975.78,729.38 C985.33,725.56 991.96,707.22 994.58,698.68 L995.83,698.94 C995.83,698.94 988.31,729.02 975.78,734.03 C963.25,739.04 905.59,736.54 862.98,729.03 C850.68,726.86 847.16,721.76 848.49,715.31 C849.53,719.52 853.82,722.76 862.98,724.38 Z" id="Shape" fill="#000000" fill-rule="nonzero" opacity="0.2"></path>
        </g>
    </g>
</svg>