<?xml version="1.0" encoding="UTF-8"?>
<svg width="74px" height="74px" viewBox="0 0 74 74" version="1.1" xmlns="http://www.w3.org/2000/svg" xmlns:xlink="http://www.w3.org/1999/xlink">
    <!-- Generator: Sketch 50.2 (55047) - http://www.bohemiancoding.com/sketch -->
    <title>ux</title>
    <desc>Created with Sketch.</desc>
    <defs></defs>
    <g id="Page-1" stroke="none" stroke-width="1" fill="none" fill-rule="evenodd">
        <g id="ux" fill="#74B9FF">
            <circle id="Oval" fill-rule="nonzero" opacity="0.0951879529" cx="37.139" cy="37.139" r="36.83"></circle>
            <path d="M53.2727273,54 C50.1145818,54 47.5454545,51.4674391 47.5454545,48.3542435 C47.5454545,45.9039852 49.1462909,43.8346273 51.3636364,43.0551365 L51.3636364,40.8265683 C51.3636364,39.7882509 50.5078545,38.9446494 49.4545455,38.9446494 L39.9090909,38.9446494 L39.9090909,43.0551365 C42.1264364,43.8346273 43.7272727,45.9039852 43.7272727,48.3542435 C43.7272727,51.4674391 41.1581455,54 38,54 C34.8418545,54 32.2727273,51.4674391 32.2727273,48.3542435 C32.2727273,45.9039852 33.8735636,43.8346273 36.0909091,43.0551365 L36.0909091,38.9446494 L26.5454545,38.9446494 C25.4921455,38.9446494 24.6363636,39.7882509 24.6363636,40.8265683 L24.6363636,43.0551365 C26.8537091,43.8346273 28.4545455,45.9039852 28.4545455,48.3542435 C28.4545455,51.4674391 25.8854182,54 22.7272727,54 C19.5691273,54 17,51.4674391 17,48.3542435 C17,45.9039852 18.6008364,43.8346273 20.8181818,43.0551365 L20.8181818,40.8265683 C20.8181818,37.7133727 23.3873091,35.1808118 26.5454545,35.1808118 L36.0909091,35.1808118 L36.0909091,30.9448635 C33.8735636,30.1653727 32.2727273,28.0960148 32.2727273,25.6457565 C32.2727273,22.5325609 34.8418545,20 38,20 C41.1581455,20 43.7272727,22.5325609 43.7272727,25.6457565 C43.7272727,28.0960148 42.1264364,30.1653727 39.9090909,30.9448635 L39.9090909,35.1808118 L49.4545455,35.1808118 C52.6126909,35.1808118 55.1818182,37.7133727 55.1818182,40.8265683 L55.1818182,43.0551365 C57.3991636,43.8346273 59,45.9039852 59,48.3542435 C59,51.4674391 56.4308727,54 53.2727273,54 Z" id="Path"></path>
        </g>
    </g>
</svg>