<?xml version="1.0" encoding="UTF-8"?>
<svg width="236px" height="253px" viewBox="0 0 236 253" version="1.1" xmlns="http://www.w3.org/2000/svg" xmlns:xlink="http://www.w3.org/1999/xlink">
    <!-- Generator: Sketch 49.3 (51167) - http://www.bohemiancoding.com/sketch -->
    <title>Allow location </title>
    <desc>Created with Sketch.</desc>
    <defs></defs>
    <g id="Page-1" stroke="none" stroke-width="1" fill="none" fill-rule="evenodd">
        <g id="Allow-location" transform="translate(-79.000000, -119.000000)">
            <g id="Allow-location-" transform="translate(79.000000, 120.000000)">
                <g id="Group" transform="translate(0.000000, 146.000000)">
                    <polygon id="Fill-1" fill="#2465F6" opacity="0.0506138393" points="186.652725 5.07326534 227 87.1154094 183.88481 82.5075874 137.740475 98.7856734 100.757557 85.777359 48.3717649 100 8 78.3513828 62.8149248 3.96076908 82.8194259 10.4661992 113.791504 4.09518511 136.906784 11.6117903 161.513933 3"></polygon>
                    <path d="M136.811683,8.50072227 L114.433336,0.889117874 L84.0882407,7.76880778 L62.2197454,0.85287943 L0,81.5084264 L46.3730096,106 L100.067671,91.1187596 L138.045228,104.732675 L184.005354,88.284505 L185.449168,88.4452812 L185.454272,88.4447708 L236,94.0790832 L188.505215,2.33304122 L160.617512,0 L136.811683,8.50072227 Z M161.58771,3.45337057 L186.733749,5.53121148 L227.092654,87.7746148 L183.965036,83.1559996 L137.977349,99.4137904 L137.807399,99.4740177 L100.81382,86.433282 L48.4124156,100.691323 L8.02952314,78.9895994 L62.8602495,4.41649653 L82.8705173,10.9373748 L113.851524,4.5512423 L136.856595,12.0485169 L136.973468,12.0857762 L161.58771,3.45337057 Z" id="Fill-2" fill="#E0E7F6"></path>
                    <g id="Group-23" transform="translate(54.000000, 17.000000)" fill="#2465F6">
                        <path d="M32.1435586,62.4692634 C32.1435586,62.4692634 33.2311034,63.4665073 35.3760828,60.9270439 C37.5210621,58.3880927 38.6346345,52.2330439 40.7153103,52.1388 C42.7970069,52.0440439 47.1568828,48.5329463 47.0395034,45.9217756 C46.9221241,43.3111171 45.3385241,39.0225073 43.2108966,38.0718732 C41.0822483,37.1222634 39.7221793,37.7942634 36.2370345,33.7228244 C32.7518897,29.6513854 29.0697517,32.7829463 28.2179862,33.170678 C27.366731,33.5584098 26.3511448,34.1709951 26.3511448,34.1709951 C26.3511448,34.1709951 24.9150345,29.2943854 22.4914069,29.4987512 C20.0677793,29.7026049 18.4362069,28.2069951 19.7294207,26.0552634 C21.0231448,23.9035317 23.4187034,26.9347024 24.4592966,26.8875805 C25.4998897,26.8399463 20.5898621,22.0048244 24.3980552,21.6575561 C28.2057379,21.3108 28.236869,22.0068732 31.5724828,18.890678 C34.9080966,15.7744829 34.0246897,15.4651171 32.1098759,13.459361 C30.1950621,11.4530927 28.4445793,11.183678 26.7262483,11.6103366 C25.0074069,12.0369951 24.865531,12.7412634 25.8030345,14.2686293 C26.7410483,15.7959951 26.4802621,17.7264585 25.4554897,18.121361 C24.4302069,18.5167756 22.302069,17.5666537 21.861131,15.4938 C21.4201931,13.4209463 19.5681517,10.8881415 21.0665241,9.4248 C22.5648966,7.96197073 24.4802207,8.0495561 25.883669,8.33484878 C27.2866069,8.62014146 27.4927862,5.47116585 29.542331,4.68033659 C31.5923862,3.88950732 27.2095448,3.04182439 25.4672276,2.9465561 C23.7249103,2.8512878 22.2750207,1.52162927 20.4857517,0.381995122 C18.6964828,-0.75815122 15.1327448,1.14772683 16.3861517,1.96314146 C17.6390483,2.7780439 18.7658897,4.64550732 17.7487724,5.21506829 C16.7316552,5.78462927 15.6752414,5.48345854 13.8303448,6.96267805 C11.9849379,8.44138537 10.5432138,7.28587317 8.73046897,5.6243122 C6.91772414,3.96172683 6.30224828,5.73392195 4.93809655,6.31936098 C3.57445517,6.9042878 5.19786207,8.22626341 4.0153931,8.97714146 C2.83241379,9.72853171 2.36697931,10.9706049 3.29682759,12.3238244 C4.22667586,13.6770439 3.35143448,13.5423366 1.45193103,13.8025317 C-0.448082759,14.063239 0.48942069,15.5906049 2.90182069,15.1321902 C5.31422069,14.6742878 5.16468966,15.2044098 7.03306207,14.2476293 C8.90143448,13.2908488 9.42198621,13.2667756 10.8565655,14.2481415 C12.2911448,15.2300195 12.8581379,16.2508244 12.3927034,17.4923854 C11.927269,18.7344585 11.7695724,19.0909463 10.6024138,20.1901171 C9.43525517,21.2898 10.6968276,22.2788488 10.8060414,24.7158732 C10.9157655,27.1528976 11.3873241,29.9079951 12.7790345,29.9387268 C14.1707448,29.9704829 10.6656966,26.1295317 13.172,25.4867268 C15.6777931,24.843922 12.358,28.3084098 15.2588,30.9672146 C18.1590897,33.6265317 17.4415448,33.1358488 19.1445655,32.3614098 C20.8475862,31.5859463 24.1234897,31.0015317 24.7905103,34.241678 C24.7905103,34.241678 22.0642483,35.4555805 21.1395034,38.0698244 C20.2142483,40.6845805 21.5860552,40.2732878 22.9022345,42.481361 C24.2179034,44.688922 25.8816276,43.0437512 27.8913655,45.2200683 C29.9011034,47.3963854 27.2672138,50.6554829 28.3379172,55.1418 C29.409131,59.6281171 31.5775862,57.6116049 32.1435586,62.4692634" id="Fill-3" opacity="0.33"></path>
                        <path d="M37.6043503,13.9077366 C37.6043503,13.9077366 35.932971,15.378761 36.3039917,12.0484683 C36.6755228,8.71766341 33.8221848,7.1027122 32.703509,5.40939512 C31.5843228,3.71556585 31.0091641,2.52112683 36.3933021,2.4509561 C41.7779503,2.38129756 43.0308469,3.1967122 42.8491641,4.94893171 C42.6674814,6.70166341 41.9019641,9.00346829 40.9241434,10.4432488 C39.9463228,11.8830293 39.2757297,12.4367122 37.6043503,13.9077366" id="Fill-5" opacity="0.33"></path>
                        <path d="M82.0280303,61.3013049 C82.0280303,61.3013049 80.9093545,62.530061 79.6013407,59.5593293 C78.2933269,56.5880854 75.0067062,54.3800122 75.7002648,51.1501098 C76.3933131,47.9196951 74.2253683,44.4828659 72.1788855,43.7335244 C70.1318924,42.9846951 65.497451,44.3732561 63.0028855,41.1192805 C60.5078097,37.8653049 60.6456028,35.3340366 62.3011614,33.9116707 C63.9562097,32.4898171 61.7423338,31.7486707 64.3450924,29.9467683 C66.947851,28.145378 70.8530097,25.4543049 72.24472,26.5642317 C73.6369407,27.6741585 75.4629545,27.2541585 76.5658097,29.3925732 C77.6686648,31.5315 79.4334372,33.4716951 82.5302097,33.3313537 C85.6274924,33.1910122 82.7200579,31.9622561 84.9926234,30.266378 C87.2646786,28.5710122 86.6527752,26.7404268 85.4999062,26.6308171 C84.3475476,26.5212073 79.4278234,25.8958171 79.1624441,23.7195 C78.8960441,21.5426707 78.6536303,19.8698415 75.632389,19.8391098 C72.6116579,19.8073537 71.1352303,20.5479878 72.0630372,22.5260854 C72.9908441,24.5041829 71.4388855,23.5643049 69.9323476,23.632939 C68.4258097,23.701061 67.8241131,25.2437927 66.651851,25.2965488 C65.4800993,25.3498171 64.5446372,23.2037195 63.8597545,22.897939 C63.1753821,22.5921585 63.0090097,18.8961585 65.17032,18.4613049 C67.33112,18.0269634 68.5110372,18.1411829 69.6899338,18.2564268 C70.869851,18.3716707 71.06072,15.1637927 71.5399338,14.6372561 C72.0196579,14.1102073 71.3164028,13.3905732 69.6440028,13.5058171 C67.9716028,13.6200366 68.5355338,11.2378171 69.6771752,10.5125488 C70.8183062,9.78728049 71.565451,9.24845122 72.8239614,10.3696463 C74.0824717,11.4913537 74.8668717,10.2774512 76.2208166,10.5525 C77.5752717,10.828061 78.6638372,8.92679268 78.4510234,7.92647561 C78.2382097,6.92564634 82.8022234,5.2287439 84.0704303,4.82206098 C85.3386372,4.41537805 86.8232303,3.86784146 89.2050097,4.5890122 C91.5857683,5.31018293 95.5200166,3.27984146 101.34152,2.17452439 C107.163023,1.06869512 105.739672,2.98532927 109.871423,3.47089024 C114.002665,3.95696341 113.736265,5.48432927 117.106582,5.83671951 C120.47792,6.18910976 125.12563,5.09864634 126.952665,4.69810976 C128.779699,4.29757317 133.862734,5.41364634 135.231989,6.02520732 C136.601754,6.6362561 132.31741,8.34596341 130.962954,8.07040244 C129.608499,7.79535366 124.772982,8.4417439 124.88781,11.0006707 C125.003148,13.5601098 127.209879,14.1332561 129.416099,14.7064024 C131.62283,15.2795488 131.778996,14.936378 132.370486,16.9298415 C132.960954,18.9233049 128.92821,18.7691341 127.908541,18.4792317 C126.888872,18.1883049 124.567823,18.7988415 124.628554,20.1428415 C124.689286,21.4868415 127.07872,22.4000854 127.154251,24.0744512 C127.229272,25.7488171 124.234568,24.6378659 122.671892,25.1142073 C121.108706,25.5895244 119.908375,27.0774512 120.483023,28.6575732 C121.057161,30.2376951 121.057672,30.247939 119.725672,30.4717683 C118.393672,30.6950854 114.162403,29.8632805 112.112348,29.0371098 C110.062292,28.210939 108.570554,28.6155732 108.471037,30.1347439 C108.37203,31.6544268 107.390127,32.2040122 106.576127,32.7459146 C105.761617,33.2883293 105.052748,36.1822317 105.418154,36.8388659 C105.418154,36.8388659 103.645727,34.7306707 102.565837,33.0967683 C101.485437,31.4618415 98.9847476,30.7196707 98.6606786,29.646622 C98.3360993,28.5740854 96.0472028,26.1636951 95.6817959,25.5014268 C95.316389,24.8391585 89.9348028,28.2677927 89.8470234,30.0466463 C89.7592441,31.8249878 92.6396303,32.4524268 93.4056579,34.5642073 C94.1716855,36.6759878 92.5278648,37.4237927 91.6526234,36.6211829 C90.7784028,35.8195976 89.3320855,37.2317195 88.9253407,35.6510854 C88.5185959,34.069939 87.88832,31.2467195 87.0809545,31.9515 C86.2740993,32.6562805 84.8053269,33.5649146 85.9117545,35.7873293 C87.0181821,38.0097439 88.5140028,37.689622 89.8817269,38.2591829 C91.2489407,38.8282317 91.2489407,38.8282317 91.3249821,40.5082317 C91.4000028,42.1887439 88.56912,42.6538171 87.9526234,43.8600366 C87.3361269,45.0667683 88.4389821,47.2051829 87.8827062,49.7559146 C87.3264303,52.3061341 84.7073407,54.6914268 84.7318372,56.6295732 C84.7568441,58.5677195 82.0280303,61.3013049 82.0280303,61.3013049" id="Fill-7" opacity="0.330301339"></path>
                        <path d="M135.161663,53.3993122 C135.161663,53.3993122 134.103208,53.6072634 132.202684,52.731922 C130.30267,51.8565805 126.992063,52.808239 127.145677,49.1158244 C127.298781,45.4234098 128.552188,45.3660439 130.793622,43.5021659 C133.035567,41.6377756 134.789622,38.0329463 135.462767,38.8038 C136.135912,39.5741415 136.077732,41.8206293 139.930836,42.2867268 C143.783429,42.7528244 142.502463,39.1254585 143.791594,39.3877024 C145.080726,39.6494341 145.036836,42.2155317 145.463484,44.5992878 C145.889622,46.9840683 150.141815,49.214678 145.838077,52.9250195 C141.534339,56.635361 141.130146,51.2060927 139.501126,50.4782634 C137.871594,49.7509463 136.936132,53.6169951 135.161663,53.3993122" id="Fill-13" opacity="0.33"></path>
                    </g>
                </g>
                <g id="Group" transform="translate(18.000000, 0.000000)">
                    <path d="M156.090784,34 C152.179407,34 151.876015,28.0226864 155.77921,27.7550145 C155.918976,27.7453313 156.059422,27.7404897 156.201233,27.7404897 C156.366224,27.7404897 156.52917,27.7522479 156.691433,27.7653894 C157.601611,22.6616406 162.001143,18.7904274 167.294491,18.7904274 C169.297563,18.7904274 171.172461,19.346521 172.779419,20.312768 C174.615455,16.5715867 178.420474,14 182.819325,14 C186.927055,14 190.516632,16.2416655 192.468571,19.5837599 C192.981952,19.5277355 193.502832,19.4959192 194.031213,19.4959192 C196.244955,19.4959192 198.341432,20.0070549 200.211557,20.9179693 C206.683704,24.0705492 204.33565,34 197.155815,34 L156.090784,34 Z" id="Fill-1" fill="#F4F7FE"></path>
                    <path d="M47.9096275,91 C51.8205481,91 52.1239756,85.0225642 48.2206065,84.7551362 C48.0812495,84.7453862 47.9405195,84.7405112 47.7984165,84.7405112 C47.6336595,84.7405112 47.4709619,84.7523504 47.3089508,84.7655826 C46.3986681,79.6621631 41.9996548,75.7900272 36.706148,75.7900272 C34.7022904,75.7900272 32.8274924,76.3464726 31.2204247,77.3131137 C29.3847565,73.5719061 25.5795551,71 21.1798553,71 C17.0725993,71 13.4836416,73.2417996 11.530584,76.5839543 C11.0177777,76.5275437 10.4967335,76.4962045 9.96813796,76.4962045 C7.75490156,76.4962045 5.65836808,77.0066857 3.78837554,77.9176126 C-2.68383065,81.0703392 -0.33535617,91 6.84393236,91 L47.9096275,91 Z" id="Fill-3" fill="#E0E7F6"></path>
                    <path d="M101,93 L101,112" id="Stroke-5" stroke="#2465F6" stroke-width="1.138" stroke-linecap="round" stroke-linejoin="round"></path>
                    <path d="M91,93 L96,112" id="Stroke-7" stroke="#2465F6" stroke-width="1.138" stroke-linecap="round" stroke-linejoin="round"></path>
                    <path d="M111.5,92.5 L106,112" id="Stroke-9" stroke="#2465F6" stroke-width="1.138" stroke-linecap="round" stroke-linejoin="round"></path>
                    <path d="M90.5,111.5 L79,92" id="Stroke-11" stroke="#2465F6" stroke-width="1.138" stroke-linecap="round" stroke-linejoin="round"></path>
                    <path d="M110.5,112.5 L123,92" id="Stroke-13" stroke="#2465F6" stroke-width="1.138" stroke-linecap="round" stroke-linejoin="round"></path>
                    <path d="M109.428906,119 L91.5710942,119 C90.7070934,119 90,118.325048 90,117.499679 C90,116.674952 90.7070934,116 91.5710942,116 L109.428906,116 C110.292907,116 111,116.674952 111,117.499679 C111,118.325048 110.292907,119 109.428906,119" id="Fill-19" fill="#FFFFFF"></path>
                    <path d="M109.428906,115 L91.5710942,115 C90.7070934,115 90,114.325048 90,113.499679 C90,112.674952 90.7070934,112 91.5710942,112 L109.428906,112 C110.292907,112 111,112.674952 111,113.499679 C111,114.325048 110.292907,115 109.428906,115 Z" id="Stroke-21" stroke="#2465F6" stroke-width="1.138" stroke-linecap="round" stroke-linejoin="round"></path>
                    <path d="M146,44.4575321 C146,56.3240296 135.418372,72.9855386 124.520566,87 C124.194722,86.8442913 123.8316,86.7552178 123.446387,86.7552178 L115,86.7552178 C120.703641,73.5600969 126.325821,59.7224226 128.192518,45.3972238 C128.563924,42.5489108 128.746866,39.6523214 128.746866,36.740773 C128.746866,25.8255263 126.191204,14.6886158 121.495468,5 C136.042445,12.3373467 146,27.2520627 146,44.4575321 Z" id="Fill-27" stroke="#2465F6" fill="#2465F6"></path>
                    <path d="M131.28455,5.43138183 C145.831527,12.7687285 156,27.2520627 156,44.4575321 C156,56.3240296 145.418372,72.9855386 134.520566,87 C134.194722,86.8442913 133.8316,86.7552178 133.446387,86.7552178 L125,86.7552178 C130.703641,73.5600969 136.325821,59.7224226 138.192518,45.3972238 C138.563924,42.5489108 138.746866,39.6523214 138.746866,36.740773 C138.746866,25.8255263 135.980286,15.1199976 131.28455,5.43138183 Z" id="Stroke-29" stroke-linecap="round" stroke-linejoin="round"></path>
                    <path d="M120.769954,5.27464711 C125.451863,14.9597237 128,26.092566 128,37.0038253 C128,39.9143101 127.817597,42.8098415 127.447284,45.657114 C125.586084,59.9770798 119.980458,73.8096992 114.293611,87 L105,87 C107.606644,68.5413275 109.658507,50.0568263 109.658507,31.5363008 C109.658507,21.3699951 109.041089,11.1914547 107.554332,1 C112.242436,1.74835212 116.686877,3.20971184 120.769954,5.27464711" id="Fill-31" fill="#FFFFFF"></path>
                    <path d="M111,31.2609822 C111,49.8734425 108.794297,68.4496997 105.993158,87 L96.0061023,87 C93.2071822,68.4496997 91,49.8734425 91,31.2630314 C91,21.0442115 91.6657051,10.8151454 93.2633973,0.573784007 C95.7827213,0.198775174 98.3671364,0 100.99963,0 C103.635083,0 106.218758,0.198775174 108.738082,0.573784007 C110.335774,10.8151454 111,21.0442115 111,31.2609822 Z" id="Fill-33" fill="#2465F6"></path>
                    <path d="M107.967542,1.07156366 C109.405465,11.1952083 110,21.802324 110,31.9016606 C110,50.3001845 108.014867,68.6629215 105.493842,87 L96.5054921,87 C93.986464,68.6629215 92,50.3001845 92,31.9036863 C92,21.802324 92.1425053,11.0939341 93.5804283,0.970289425 C95.8478198,0.599591039 98.6307556,0.534708772 101,0.534708772 C103.371907,0.534708772 105.70015,0.70086527 107.967542,1.07156366 Z" id="Stroke-35" stroke="#2465F6" stroke-width="1.138" stroke-linecap="round" stroke-linejoin="round"></path>
                    <path d="M80.2306956,5.27464711 C84.3120735,3.20971184 88.7589788,1.74835212 93.4475039,1 C91.960613,11.1914547 91.3410751,21.3699951 91.3410751,31.5376602 C91.3410751,50.0568263 93.3951874,68.5413275 96,87 L86.7055549,87 C81.0195738,73.8096992 75.4141326,59.9770798 73.5507003,45.657114 C73.1810427,42.8112009 73,39.9177086 73,37.0085832 C73,26.0959645 75.5469891,14.9610831 80.2306956,5.27464711" id="Fill-37" fill="#FFFFFF"></path>
                    <path d="M80.506169,5 C75.808739,14.6899757 73.2542871,25.8289261 73.2542871,36.7455326 C73.2542871,39.6557211 73.4358603,42.5502707 73.806601,45.3972238 C75.6754933,59.7224226 81.2980491,73.5600969 87,86.7552178 L78.5537393,86.7552178 C78.1698811,86.7552178 77.8060443,86.8442913 77.4808694,87 C66.5809541,72.9855386 56,56.3247096 56,44.4575321 C56,27.2520627 65.9568393,12.3373467 80.506169,5 Z" id="Fill-39" fill="#2465F6"></path>
                    <path d="M56,44.4575321 C56,27.2520627 65.9568393,12.3373467 80.506169,5 C75.808739,14.6899757 73.2542871,25.8289261 73.2542871,36.7455326 C73.2542871,39.6557211 73.4358603,42.5502707 73.806601,45.3972238 C75.6754933,59.7224226 81.2980491,73.5600969 87,86.7552178 L78.5537393,86.7552178 C78.1698811,86.7552178 77.8060443,86.8442913 77.4808694,87 C66.5809541,72.9855386 56,56.3247096 56,44.4575321 Z" id="Stroke-41" stroke="#2465F6" stroke-width="1.138" stroke-linecap="round" stroke-linejoin="round"></path>
                    <path d="M96.5518824,87.0640095 C93.9089629,68.605191 91.915798,50.5742977 91.915798,32.0549853 C91.915798,21.8872398 91.9015191,11.1908556 93.4101624,1 C88.6523485,1.74767832 84.1403876,3.2097293 80,5.27400119" id="Stroke-45" stroke="#2465F6" stroke-width="1.138" stroke-linecap="round" stroke-linejoin="round"></path>
                    <path d="M105.566554,86.0890213 C108.093432,68.1783865 110,50.1536686 110,32.1830173 C110,22.3185491 109.447488,10.8871355 108.006227,0.998924456 C105.733572,0.636846962 103.363948,0.480211654 100.986535,0.480211654 C98.6111228,0.480211654 95.7631331,0.560974415 93.4904778,0.923051908" id="Stroke-47" stroke="#2465F6" stroke-linecap="round" stroke-linejoin="round"></path>
                    <path d="M114.592378,87 C120.155265,73.8095949 125.92101,60.5331253 127.74164,46.2130463 C128.103881,43.3657513 128.429003,39.9771605 128.429003,37.065973 C128.429003,26.1553071 125.835756,14.2200897 120.864,4.68575999 C116.870598,2.6214881 112.586588,1.74767832 108,1" id="Stroke-49" stroke="#2465F6" stroke-linecap="round" stroke-linejoin="round"></path>
                    <path d="M123.607176,87.2488562 C123.286799,87.0908083 122.929769,87 122.551697,87 L78.4483031,87 C78.0702313,87 77.71388,87.0908083 77.3928245,87.2488562 C76.5715196,87.6536809 76,88.5104672 76,89.4996534 C76,90.8742548 77.1016346,92 78.4483031,92 L81.0405042,92 L119.959496,92 L122.551697,92 C123.898365,92 125,90.8742548 125,89.4996534 C125,88.5104672 124.42848,87.6536809 123.607176,87.2488562 Z" id="Stroke-17" stroke="#2465F6" stroke-width="1.138" stroke-linecap="round" stroke-linejoin="round"></path>
                </g>
                <g id="placeholder-(1)" transform="translate(113.000000, 138.000000)" fill="#525252" fill-rule="nonzero">
                    <path d="M6.75042129,0.0043267981 C3.26414745,0.122836414 0.367913772,2.75793259 0.0333178315,6.12151434 C-0.035040479,6.79423069 0.00453538499,7.44603358 0.126860783,8.06995186 C0.126860783,8.06995186 0.1376542,8.14314897 0.173632258,8.28257205 C0.281566433,8.74963936 0.443467694,9.20276437 0.64494482,9.62800475 C1.34651695,11.2383413 2.96912738,13.9326923 6.61010686,16.8640625 C6.83317082,17.0453125 7.16057115,17.0453125 7.38723291,16.8640625 C11.0282124,13.9361779 12.6508228,11.2418269 13.3559928,9.62451918 C13.5610677,9.19927879 13.7193711,8.74963936 13.8273053,8.27908647 C13.8596856,8.14314897 13.8740768,8.06646628 13.8740768,8.06646628 C13.9568263,7.64819705 14,7.21947108 14,6.78028839 C14,2.9531249 10.7295945,-0.131610703 6.75042129,0.0043267981 Z M6.99866989,10.1543269 C5.12061525,10.1543269 3.59874339,8.67992782 3.59874339,6.86045666 C3.59874339,5.04098549 5.12061525,3.56658644 6.99866989,3.56658644 C8.87672452,3.56658644 10.3985964,5.04098549 10.3985964,6.86045666 C10.3985964,8.67992782 8.87672452,10.1543269 6.99866989,10.1543269 Z" id="Shape"></path>
                </g>
            </g>
        </g>
    </g>
</svg>